<svg width="386" height="167" viewBox="0 0 386 167" fill="none" xmlns="http://www.w3.org/2000/svg">
<g filter="url(#filter0_d_3463_249)">
<rect x="2.45707" y="1.1259" width="378.222" height="160.148" rx="3.06667" stroke="#D9D9D9" stroke-width="0.681482" shape-rendering="crispEdges"/>
<g clip-path="url(#clip0_3463_249)">
<path d="M31.3294 27.8459L32.1679 26.4962C32.5246 26.7837 32.8734 27.0233 33.2141 27.215C33.5602 27.4013 33.9089 27.5397 34.2603 27.6302C34.6117 27.7154 34.971 27.758 35.3384 27.758C35.8389 27.758 36.2754 27.6781 36.6481 27.5184C37.0208 27.3587 37.311 27.1351 37.5186 26.8476C37.7263 26.5601 37.8301 26.23 37.8301 25.8573C37.8301 25.4367 37.7076 25.088 37.4627 24.8111C37.2231 24.5343 36.909 24.2974 36.5203 24.1004C36.1317 23.8981 35.7164 23.7064 35.2745 23.5254C34.8859 23.3656 34.4972 23.1926 34.1085 23.0063C33.7252 22.8146 33.3738 22.5937 33.0544 22.3434C32.7403 22.0932 32.4874 21.7897 32.2957 21.433C32.1094 21.071 32.0162 20.6344 32.0162 20.1233C32.0162 19.4684 32.1812 18.8934 32.5113 18.3983C32.8414 17.9031 33.2966 17.5198 33.8769 17.2483C34.4626 16.9768 35.1361 16.841 35.8974 16.841C36.4139 16.841 36.9409 16.9102 37.4787 17.0486C38.0217 17.1817 38.5515 17.3814 39.0679 17.6476L38.3572 19.0771C37.9845 18.8588 37.5878 18.6884 37.1672 18.566C36.7519 18.4435 36.35 18.3823 35.9613 18.3823C35.5354 18.3823 35.16 18.4515 34.8353 18.59C34.5158 18.7284 34.2656 18.9227 34.0846 19.1729C33.9036 19.4232 33.8131 19.716 33.8131 20.0514C33.8131 20.4294 33.9275 20.7489 34.1565 21.0097C34.3854 21.2706 34.6835 21.4996 35.0509 21.6965C35.4236 21.8882 35.8176 22.0746 36.2328 22.2556C36.6375 22.4366 37.0394 22.6283 37.4388 22.8306C37.8434 23.0276 38.2081 23.2618 38.5328 23.5334C38.8629 23.8049 39.1265 24.1297 39.3235 24.5077C39.5258 24.8803 39.6269 25.3302 39.6269 25.8573C39.6269 26.5441 39.4513 27.1457 39.0999 27.6622C38.7485 28.1733 38.256 28.5726 37.6224 28.8601C36.9942 29.1476 36.2568 29.2913 35.4103 29.2913C34.6596 29.2913 33.9408 29.1715 33.254 28.932C32.5725 28.6871 31.931 28.325 31.3294 27.8459ZM44.585 29.0518H42.8441V16.7531H44.585V29.0518ZM54.8619 29.0518H53.4483L53.3525 28.0295C53.0597 28.4022 52.6897 28.6924 52.2424 28.9C51.7952 29.1077 51.3001 29.2115 50.757 29.2115C50.1874 29.2115 49.6789 29.0997 49.2317 28.8761C48.7845 28.6525 48.4331 28.3463 48.1775 27.9577C47.922 27.569 47.7942 27.1271 47.7942 26.632C47.7942 26.1102 47.9326 25.6523 48.2095 25.2584C48.4863 24.859 48.8643 24.5476 49.3435 24.324C49.8227 24.095 50.3684 23.9806 50.9806 23.9806C51.364 23.9806 51.7526 24.0258 52.1466 24.1163C52.5459 24.2069 52.9053 24.3346 53.2247 24.4997V24.2042C53.2247 23.8155 53.1236 23.4828 52.9213 23.2059C52.7243 22.9237 52.4527 22.7081 52.1067 22.559C51.7659 22.41 51.3879 22.3354 50.9727 22.3354C50.6053 22.3354 50.2299 22.3993 49.8466 22.5271C49.4686 22.6549 49.1119 22.8519 48.7765 23.1181L48.2813 21.7844C48.7658 21.4969 49.269 21.2786 49.7907 21.1295C50.3178 20.9805 50.8342 20.9059 51.34 20.9059C52.0641 20.9059 52.687 21.0497 53.2088 21.3372C53.7358 21.6247 54.1431 22.0346 54.4306 22.567C54.7181 23.0941 54.8619 23.717 54.8619 24.4358V29.0518ZM51.0765 27.8219C51.4545 27.8219 51.8032 27.7447 52.1227 27.5903C52.4421 27.4306 52.7003 27.207 52.8973 26.9195C53.0996 26.6266 53.2088 26.2859 53.2247 25.8972V25.7854C52.9532 25.5831 52.6471 25.4261 52.3063 25.3143C51.9709 25.1971 51.6275 25.1386 51.2761 25.1386C50.7384 25.1386 50.2912 25.2663 49.9345 25.5219C49.5777 25.7775 49.3994 26.1049 49.3994 26.5042C49.3994 26.7544 49.4713 26.9807 49.615 27.183C49.7641 27.38 49.9637 27.5371 50.214 27.6542C50.4695 27.766 50.757 27.8219 51.0765 27.8219ZM65.0988 27.8618C64.7101 28.2931 64.2443 28.6258 63.7012 28.8601C63.1582 29.0944 62.5699 29.2115 61.9363 29.2115C61.1377 29.2115 60.4189 29.0305 59.7801 28.6684C59.1465 28.3064 58.646 27.8112 58.2787 27.183C57.9113 26.5548 57.7276 25.8467 57.7276 25.0587C57.7276 24.2654 57.9113 23.5573 58.2787 22.9344C58.646 22.3062 59.1465 21.811 59.7801 21.449C60.4189 21.0869 61.1377 20.9059 61.9363 20.9059C62.5645 20.9059 63.1502 21.0231 63.6933 21.2573C64.2363 21.4862 64.7022 21.8163 65.0908 22.2476L64.1245 23.2618C63.8636 22.985 63.5495 22.772 63.1821 22.6229C62.8201 22.4685 62.4341 22.3913 62.0242 22.3913C61.5184 22.3913 61.0685 22.5058 60.6745 22.7347C60.2805 22.9637 59.9717 23.2778 59.7481 23.6771C59.5245 24.0711 59.4127 24.529 59.4127 25.0507C59.4127 25.5672 59.5245 26.0277 59.7481 26.4323C59.9717 26.8369 60.2805 27.1537 60.6745 27.3827C61.0685 27.6116 61.5184 27.7261 62.0242 27.7261C62.4341 27.7261 62.8228 27.6489 63.1901 27.4945C63.5575 27.3401 63.8689 27.1271 64.1245 26.8556L65.0988 27.8618ZM69.7454 29.0518H68.1083V17.0726H69.7454V25.1465L70.4243 24.332L73.5069 21.0656H75.5593L72.2611 24.5636L76.0225 29.0518H73.9062L71.127 25.6816L69.7454 27.1031V29.0518ZM79.639 18.7497C79.3887 18.7497 79.1784 18.6618 79.0081 18.4861C78.8377 18.3104 78.7525 18.0975 78.7525 17.8472C78.7525 17.597 78.8377 17.3867 79.0081 17.2163C79.1784 17.0406 79.3887 16.9528 79.639 16.9528C79.8945 16.9528 80.1075 17.0406 80.2778 17.2163C80.4535 17.3867 80.5414 17.597 80.5414 17.8472C80.5414 18.0975 80.4535 18.3104 80.2778 18.4861C80.1075 18.6618 79.8945 18.7497 79.639 18.7497ZM80.4535 29.0518H78.8164V21.0656H80.4535V29.0518ZM91.7366 29.0518H90.0995V24.7153C90.0995 24.0072 89.9052 23.4428 89.5165 23.0222C89.1332 22.6016 88.6167 22.3913 87.9672 22.3913C87.2964 22.3913 86.756 22.615 86.346 23.0622C85.9361 23.5094 85.7311 24.103 85.7311 24.8431V29.0518H84.0939V21.0656H85.4755L85.5314 22.3514C85.8243 21.8829 86.2076 21.5262 86.6814 21.2813C87.1553 21.031 87.7116 20.9059 88.3505 20.9059C89.3994 20.9059 90.2246 21.2227 90.8262 21.8563C91.4332 22.4898 91.7366 23.363 91.7366 24.4757V29.0518ZM98.5475 29.0837C97.7968 29.0837 97.1233 28.9053 96.527 28.5486C95.9307 28.1919 95.4596 27.7048 95.1135 27.0872C94.7727 26.4696 94.6024 25.7721 94.6024 24.9948C94.6024 24.2122 94.7727 23.5147 95.1135 22.9025C95.4596 22.2849 95.9307 21.7977 96.527 21.441C97.1233 21.0843 97.7995 20.9059 98.5555 20.9059C99.1518 20.9059 99.7002 21.0204 100.201 21.2493C100.706 21.4783 101.135 21.7924 101.486 22.1917L101.566 21.0656H103.012V28.8361C103.012 29.7306 102.828 30.5026 102.461 31.1521C102.099 31.807 101.585 32.3128 100.919 32.6695C100.254 33.0262 99.4659 33.2045 98.5555 33.2045C97.2724 33.2045 96.141 32.7866 95.1614 31.9507L95.8562 30.625C96.5749 31.3651 97.4428 31.7351 98.4597 31.7351C99.0506 31.7351 99.5618 31.6126 99.993 31.3677C100.43 31.1228 100.768 30.7794 101.007 30.3375C101.252 29.9009 101.375 29.3845 101.375 28.7882V27.9177C101.023 28.2798 100.605 28.5646 100.121 28.7722C99.6363 28.9799 99.1119 29.0837 98.5475 29.0837ZM98.819 27.6302C99.2876 27.6302 99.7135 27.5237 100.097 27.3108C100.485 27.0978 100.794 26.8077 101.023 26.4403C101.257 26.0676 101.375 25.6444 101.375 25.1705V24.8111C101.375 24.3373 101.257 23.9167 101.023 23.5493C100.794 23.182 100.485 22.8918 100.097 22.6788C99.7135 22.4659 99.2876 22.3594 98.819 22.3594C98.3292 22.3594 97.8927 22.4765 97.5093 22.7108C97.126 22.9397 96.8225 23.2538 96.5989 23.6531C96.3753 24.0471 96.2635 24.4944 96.2635 24.9948C96.2635 25.4953 96.3753 25.9452 96.5989 26.3445C96.8225 26.7438 97.126 27.0579 97.5093 27.2868C97.8927 27.5158 98.3292 27.6302 98.819 27.6302Z" fill="black"/>
</g>
</g>
<defs>
<filter id="filter0_d_3463_249" x="0.75337" y="0.103675" width="384.356" height="166.281" filterUnits="userSpaceOnUse" color-interpolation-filters="sRGB">
<feFlood flood-opacity="0" result="BackgroundImageFix"/>
<feColorMatrix in="SourceAlpha" type="matrix" values="0 0 0 0 0 0 0 0 0 0 0 0 0 0 0 0 0 0 127 0" result="hardAlpha"/>
<feOffset dx="1.36296" dy="2.04444"/>
<feGaussianBlur stdDeviation="1.36296"/>
<feComposite in2="hardAlpha" operator="out"/>
<feColorMatrix type="matrix" values="0 0 0 0 0 0 0 0 0 0 0 0 0 0 0 0 0 0 1 0"/>
<feBlend mode="normal" in2="BackgroundImageFix" result="effect1_dropShadow_3463_249"/>
<feBlend mode="normal" in="SourceGraphic" in2="effect1_dropShadow_3463_249" result="shape"/>
</filter>
<clipPath id="clip0_3463_249">
<rect width="121.304" height="28.6222" fill="white" transform="translate(19.8348 13.0518)"/>
</clipPath>
</defs>
</svg>
