<svg width="887" height="114" viewBox="0 0 887 114" fill="none" xmlns="http://www.w3.org/2000/svg">
<g filter="url(#filter0_d_3463_69)">
<g clip-path="url(#clip0_3463_69)">
<rect x="147.287" y="18" width="374" height="66" rx="33" fill="#E5E4E4"/>
<path d="M186.214 57.623L186.849 56.627C187.259 56.9655 187.676 57.2487 188.099 57.4766C188.529 57.7044 188.968 57.8737 189.417 57.9844C189.867 58.0951 190.322 58.1504 190.785 58.1504C191.501 58.1504 192.129 58.0267 192.669 57.7793C193.21 57.5254 193.633 57.1771 193.939 56.7344C194.245 56.2917 194.398 55.7806 194.398 55.2012C194.398 54.5827 194.229 54.0749 193.89 53.6777C193.558 53.2741 193.128 52.9355 192.601 52.6621C192.074 52.3822 191.514 52.1185 190.921 51.8711C190.446 51.6693 189.977 51.4577 189.515 51.2363C189.053 51.0085 188.633 50.7448 188.255 50.4453C187.878 50.1458 187.575 49.7878 187.347 49.3711C187.126 48.9544 187.015 48.4499 187.015 47.8574C187.015 47.1087 187.204 46.4512 187.582 45.8848C187.959 45.3118 188.48 44.8659 189.144 44.5469C189.815 44.2279 190.589 44.0684 191.468 44.0684C192.054 44.0684 192.637 44.1432 193.216 44.293C193.802 44.4427 194.362 44.6641 194.896 44.957L194.359 46.0215C193.903 45.7611 193.428 45.5625 192.933 45.4258C192.445 45.2826 191.96 45.2109 191.478 45.2109C190.86 45.2109 190.313 45.3184 189.837 45.5332C189.369 45.748 189.001 46.0475 188.734 46.4316C188.467 46.8158 188.333 47.2617 188.333 47.7695C188.333 48.3229 188.49 48.7852 188.802 49.1562C189.121 49.5273 189.528 49.8464 190.023 50.1133C190.524 50.3737 191.052 50.6276 191.605 50.875C192.106 51.0898 192.598 51.3177 193.08 51.5586C193.568 51.7995 194.011 52.0827 194.408 52.4082C194.805 52.7272 195.121 53.1113 195.355 53.5605C195.596 54.0098 195.716 54.5501 195.716 55.1816C195.716 55.9954 195.511 56.7116 195.101 57.3301C194.691 57.9486 194.121 58.4303 193.392 58.7754C192.663 59.1204 191.813 59.293 190.843 59.293C189.997 59.293 189.183 59.153 188.402 58.873C187.627 58.5931 186.898 58.1764 186.214 57.623ZM206.937 57.7793C205.739 58.7233 204.411 59.1953 202.953 59.1953C201.944 59.1953 201.039 58.9707 200.238 58.5215C199.444 58.0658 198.819 57.4473 198.363 56.666C197.907 55.8848 197.679 54.9993 197.679 54.0098C197.679 53.0527 197.891 52.1999 198.314 51.4512C198.744 50.7025 199.33 50.1133 200.072 49.6836C200.814 49.2539 201.657 49.0391 202.601 49.0391C203.558 49.0391 204.401 49.2669 205.13 49.7227C205.86 50.1719 206.429 50.7969 206.839 51.5977C207.25 52.3919 207.455 53.3132 207.455 54.3613V54.6641H198.978C199.056 55.3477 199.281 55.9466 199.652 56.4609C200.029 56.9753 200.511 57.3757 201.097 57.6621C201.683 57.9486 202.341 58.0918 203.07 58.0918C204.268 58.0918 205.368 57.6947 206.371 56.9004L206.937 57.7793ZM198.939 53.6289H206.332C206.273 52.9323 206.081 52.3236 205.755 51.8027C205.43 51.2819 205 50.875 204.466 50.582C203.939 50.2891 203.337 50.1426 202.66 50.1426C201.976 50.1426 201.361 50.2891 200.814 50.582C200.274 50.875 199.837 51.2852 199.505 51.8125C199.18 52.3333 198.991 52.9388 198.939 53.6289ZM217.513 59H216.488L216.39 57.3691C216.065 57.929 215.609 58.375 215.023 58.707C214.437 59.0326 213.77 59.1953 213.021 59.1953C212.331 59.1953 211.712 59.0618 211.166 58.7949C210.625 58.5215 210.199 58.1504 209.886 57.6816C209.574 57.2064 209.417 56.6693 209.417 56.0703C209.417 55.4453 209.587 54.8919 209.925 54.4102C210.264 53.9284 210.729 53.5508 211.322 53.2773C211.914 52.9974 212.588 52.8574 213.343 52.8574C213.871 52.8574 214.395 52.9258 214.916 53.0625C215.436 53.1992 215.902 53.3913 216.312 53.6387V52.9746C216.312 52.3822 216.182 51.8743 215.921 51.4512C215.661 51.028 215.303 50.7057 214.847 50.4844C214.398 50.2565 213.887 50.1426 213.314 50.1426C212.819 50.1426 212.324 50.2337 211.83 50.416C211.335 50.5918 210.873 50.8555 210.443 51.207L210.013 50.1719C210.547 49.8008 211.117 49.5208 211.722 49.332C212.334 49.1367 212.943 49.0391 213.548 49.0391C214.362 49.0391 215.062 49.2051 215.648 49.5371C216.24 49.8691 216.699 50.3411 217.025 50.9531C217.35 51.5586 217.513 52.2812 217.513 53.1211V59ZM213.216 58.0918C213.783 58.0918 214.294 57.9714 214.75 57.7305C215.212 57.4831 215.583 57.138 215.863 56.6953C216.143 56.2461 216.292 55.7318 216.312 55.1523V54.8203C215.908 54.5143 215.469 54.2832 214.994 54.127C214.525 53.9642 214.037 53.8828 213.529 53.8828C212.702 53.8828 212.015 54.0814 211.468 54.4785C210.928 54.8757 210.658 55.3867 210.658 56.0117C210.658 56.4023 210.768 56.7572 210.99 57.0762C211.218 57.3887 211.524 57.6361 211.908 57.8184C212.298 58.0007 212.735 58.0918 213.216 58.0918ZM221.771 59H220.57V49.2344H221.634L221.683 51.3926C222.009 50.6374 222.49 50.0579 223.128 49.6543C223.773 49.2441 224.525 49.0391 225.384 49.0391C225.541 49.0391 225.7 49.0488 225.863 49.0684C226.032 49.0814 226.198 49.1042 226.361 49.1367L226.214 50.2207C225.895 50.1556 225.576 50.123 225.257 50.123C224.58 50.123 223.978 50.2891 223.451 50.6211C222.923 50.9531 222.51 51.4121 222.21 51.998C221.917 52.5775 221.771 53.248 221.771 54.0098V59ZM236.224 57.6426C235.755 58.1374 235.202 58.5215 234.564 58.7949C233.932 59.0618 233.249 59.1953 232.513 59.1953C231.55 59.1953 230.684 58.974 229.916 58.5312C229.154 58.0885 228.552 57.4831 228.109 56.7148C227.666 55.9466 227.445 55.0807 227.445 54.1172C227.445 53.1471 227.666 52.2812 228.109 51.5195C228.552 50.7513 229.154 50.1458 229.916 49.7031C230.684 49.2604 231.55 49.0391 232.513 49.0391C233.242 49.0391 233.926 49.1725 234.564 49.4395C235.202 49.7064 235.752 50.0872 236.214 50.582L235.482 51.3535C235.117 50.9694 234.681 50.6732 234.173 50.4648C233.672 50.25 233.135 50.1426 232.562 50.1426C231.813 50.1426 231.146 50.3151 230.56 50.6602C229.981 50.9987 229.522 51.4674 229.183 52.0664C228.851 52.6654 228.685 53.3457 228.685 54.1074C228.685 54.8757 228.851 55.5625 229.183 56.168C229.522 56.7669 229.981 57.2389 230.56 57.584C231.146 57.9225 231.813 58.0918 232.562 58.0918C233.135 58.0918 233.675 57.9876 234.183 57.7793C234.691 57.5645 235.124 57.265 235.482 56.8809L236.224 57.6426ZM238.695 59V44.3516H239.896V50.9824C240.599 49.6868 241.791 49.0391 243.47 49.0391C244.766 49.0391 245.775 49.4264 246.498 50.2012C247.227 50.9759 247.591 52.0599 247.591 53.4531V59H246.39V53.6973C246.39 52.571 246.107 51.6953 245.541 51.0703C244.974 50.4388 244.186 50.123 243.177 50.123C242.162 50.123 241.361 50.4421 240.775 51.0801C240.189 51.7181 239.896 52.5905 239.896 53.6973V59H238.695ZM264.251 59H263.187L263.148 57.1641C262.803 57.8216 262.328 58.3262 261.722 58.6777C261.123 59.0228 260.404 59.1953 259.564 59.1953C258.275 59.1953 257.259 58.8047 256.517 58.0234C255.781 57.2357 255.414 56.1549 255.414 54.7812V49.2344H256.615V54.7031C256.615 55.7448 256.898 56.5716 257.464 57.1836C258.031 57.7891 258.796 58.0918 259.759 58.0918C260.755 58.0918 261.553 57.7728 262.152 57.1348C262.751 56.4902 263.05 55.6341 263.05 54.5664V49.2344H264.251V59ZM266.8 58.1504L267.152 57.0371C267.393 57.2585 267.66 57.4473 267.953 57.6035C268.252 57.7598 268.561 57.8802 268.88 57.9648C269.206 58.0495 269.535 58.0918 269.867 58.0918C270.531 58.0918 271.071 57.929 271.488 57.6035C271.904 57.278 272.113 56.8548 272.113 56.334C272.113 55.9629 272.009 55.6602 271.8 55.4258C271.592 55.1849 271.319 54.9798 270.98 54.8105C270.641 54.6413 270.283 54.4818 269.906 54.332C269.47 54.1628 269.043 53.974 268.626 53.7656C268.21 53.5508 267.865 53.2741 267.591 52.9355C267.324 52.597 267.191 52.151 267.191 51.5977C267.191 51.0768 267.318 50.6276 267.572 50.25C267.832 49.8659 268.194 49.5697 268.656 49.3613C269.125 49.1465 269.665 49.0391 270.277 49.0391C271.156 49.0391 272.022 49.2539 272.875 49.6836L272.503 50.7676C272.302 50.6439 272.074 50.5365 271.82 50.4453C271.566 50.3477 271.306 50.2728 271.039 50.2207C270.772 50.1686 270.518 50.1426 270.277 50.1426C269.723 50.1426 269.278 50.276 268.939 50.543C268.6 50.8034 268.431 51.1484 268.431 51.5781C268.431 51.8581 268.506 52.1022 268.656 52.3105C268.812 52.5124 269.046 52.7012 269.359 52.877C269.671 53.0527 270.062 53.2383 270.531 53.4336C270.98 53.6159 271.419 53.8242 271.849 54.0586C272.279 54.2865 272.634 54.5794 272.914 54.9375C273.2 55.2956 273.343 55.7611 273.343 56.334C273.343 56.8939 273.197 57.3919 272.904 57.8281C272.617 58.2578 272.217 58.5931 271.703 58.834C271.195 59.0749 270.602 59.1953 269.925 59.1953C268.799 59.1953 267.757 58.847 266.8 58.1504ZM284.359 57.7793C283.161 58.7233 281.833 59.1953 280.375 59.1953C279.365 59.1953 278.46 58.9707 277.66 58.5215C276.865 58.0658 276.24 57.4473 275.785 56.666C275.329 55.8848 275.101 54.9993 275.101 54.0098C275.101 53.0527 275.313 52.1999 275.736 51.4512C276.166 50.7025 276.751 50.1133 277.494 49.6836C278.236 49.2539 279.079 49.0391 280.023 49.0391C280.98 49.0391 281.823 49.2669 282.552 49.7227C283.281 50.1719 283.851 50.7969 284.261 51.5977C284.671 52.3919 284.876 53.3132 284.876 54.3613V54.6641H276.4C276.478 55.3477 276.703 55.9466 277.074 56.4609C277.451 56.9753 277.933 57.3757 278.519 57.6621C279.105 57.9486 279.763 58.0918 280.492 58.0918C281.69 58.0918 282.79 57.6947 283.792 56.9004L284.359 57.7793ZM276.361 53.6289H283.753C283.695 52.9323 283.503 52.3236 283.177 51.8027C282.852 51.2819 282.422 50.875 281.888 50.582C281.361 50.2891 280.759 50.1426 280.082 50.1426C279.398 50.1426 278.783 50.2891 278.236 50.582C277.695 50.875 277.259 51.2852 276.927 51.8125C276.602 52.3333 276.413 52.9388 276.361 53.6289ZM288.529 59H287.328V49.2344H288.392L288.441 51.3926C288.766 50.6374 289.248 50.0579 289.886 49.6543C290.531 49.2441 291.283 49.0391 292.142 49.0391C292.298 49.0391 292.458 49.0488 292.621 49.0684C292.79 49.0814 292.956 49.1042 293.119 49.1367L292.972 50.2207C292.653 50.1556 292.334 50.123 292.015 50.123C291.338 50.123 290.736 50.2891 290.208 50.6211C289.681 50.9531 289.268 51.4121 288.968 51.998C288.675 52.5775 288.529 53.248 288.529 54.0098V59ZM294.32 61.3438H293.421L294.281 57.2422H295.414L294.32 61.3438ZM312.728 59H311.644L311.585 57.125C311.169 57.7695 310.609 58.2773 309.906 58.6484C309.209 59.013 308.434 59.1953 307.582 59.1953C306.618 59.1953 305.755 58.974 304.994 58.5312C304.238 58.0885 303.639 57.4831 303.197 56.7148C302.761 55.9466 302.542 55.0807 302.542 54.1172C302.542 53.1471 302.761 52.2812 303.197 51.5195C303.639 50.7513 304.238 50.1458 304.994 49.7031C305.755 49.2604 306.618 49.0391 307.582 49.0391C308.415 49.0391 309.177 49.2181 309.867 49.5762C310.557 49.9277 311.11 50.416 311.527 51.041V44.3516H312.728V59ZM307.66 58.1113C308.369 58.1113 309.017 57.9486 309.603 57.623C310.189 57.291 310.654 56.8418 311 56.2754C311.351 55.7025 311.527 55.0547 311.527 54.332V53.8926C311.527 53.1764 311.354 52.5352 311.009 51.9688C310.664 51.3958 310.199 50.9466 309.613 50.6211C309.033 50.2891 308.382 50.123 307.66 50.123C306.924 50.123 306.26 50.2988 305.667 50.6504C305.082 50.9954 304.619 51.4707 304.281 52.0762C303.942 52.6751 303.773 53.3522 303.773 54.1074C303.773 54.8691 303.942 55.5527 304.281 56.1582C304.619 56.7572 305.082 57.2324 305.667 57.584C306.253 57.9355 306.917 58.1113 307.66 58.1113ZM320.257 59.1953C319.294 59.1953 318.428 58.974 317.66 58.5312C316.891 58.0885 316.286 57.4863 315.843 56.7246C315.401 55.9564 315.179 55.0872 315.179 54.1172C315.179 53.1536 315.401 52.291 315.843 51.5293C316.286 50.7611 316.891 50.1556 317.66 49.7129C318.428 49.2637 319.294 49.0391 320.257 49.0391C321.214 49.0391 322.074 49.2637 322.835 49.7129C323.597 50.1556 324.199 50.7611 324.642 51.5293C325.085 52.291 325.306 53.1536 325.306 54.1172C325.306 55.0807 325.085 55.9466 324.642 56.7148C324.199 57.4831 323.597 58.0885 322.835 58.5312C322.074 58.974 321.214 59.1953 320.257 59.1953ZM320.248 58.1113C320.977 58.1113 321.628 57.9355 322.201 57.584C322.78 57.2324 323.236 56.7572 323.568 56.1582C323.906 55.5527 324.076 54.8691 324.076 54.1074C324.076 53.3587 323.906 52.6849 323.568 52.0859C323.236 51.4805 322.78 51.002 322.201 50.6504C321.628 50.2988 320.977 50.123 320.248 50.123C319.518 50.123 318.864 50.2988 318.285 50.6504C317.705 51.002 317.246 51.4805 316.908 52.0859C316.576 52.6849 316.41 53.3587 316.41 54.1074C316.41 54.8691 316.576 55.5527 316.908 56.1582C317.246 56.7572 317.705 57.2324 318.285 57.584C318.864 57.9355 319.518 58.1113 320.248 58.1113ZM335.755 57.6426C335.287 58.1374 334.733 58.5215 334.095 58.7949C333.464 59.0618 332.78 59.1953 332.044 59.1953C331.081 59.1953 330.215 58.974 329.447 58.5312C328.685 58.0885 328.083 57.4831 327.64 56.7148C327.197 55.9466 326.976 55.0807 326.976 54.1172C326.976 53.1471 327.197 52.2812 327.64 51.5195C328.083 50.7513 328.685 50.1458 329.447 49.7031C330.215 49.2604 331.081 49.0391 332.044 49.0391C332.774 49.0391 333.457 49.1725 334.095 49.4395C334.733 49.7064 335.283 50.0872 335.746 50.582L335.013 51.3535C334.649 50.9694 334.212 50.6732 333.705 50.4648C333.203 50.25 332.666 50.1426 332.093 50.1426C331.345 50.1426 330.677 50.3151 330.091 50.6602C329.512 50.9987 329.053 51.4674 328.714 52.0664C328.382 52.6654 328.216 53.3457 328.216 54.1074C328.216 54.8757 328.382 55.5625 328.714 56.168C329.053 56.7669 329.512 57.2389 330.091 57.584C330.677 57.9225 331.345 58.0918 332.093 58.0918C332.666 58.0918 333.207 57.9876 333.714 57.7793C334.222 57.5645 334.655 57.265 335.013 56.8809L335.755 57.6426ZM337.542 58.1504L337.894 57.0371C338.135 57.2585 338.402 57.4473 338.695 57.6035C338.994 57.7598 339.304 57.8802 339.623 57.9648C339.948 58.0495 340.277 58.0918 340.609 58.0918C341.273 58.0918 341.813 57.929 342.23 57.6035C342.647 57.278 342.855 56.8548 342.855 56.334C342.855 55.9629 342.751 55.6602 342.542 55.4258C342.334 55.1849 342.061 54.9798 341.722 54.8105C341.384 54.6413 341.026 54.4818 340.648 54.332C340.212 54.1628 339.785 53.974 339.369 53.7656C338.952 53.5508 338.607 53.2741 338.333 52.9355C338.067 52.597 337.933 52.151 337.933 51.5977C337.933 51.0768 338.06 50.6276 338.314 50.25C338.574 49.8659 338.936 49.5697 339.398 49.3613C339.867 49.1465 340.407 49.0391 341.019 49.0391C341.898 49.0391 342.764 49.2539 343.617 49.6836L343.246 50.7676C343.044 50.6439 342.816 50.5365 342.562 50.4453C342.308 50.3477 342.048 50.2728 341.781 50.2207C341.514 50.1686 341.26 50.1426 341.019 50.1426C340.466 50.1426 340.02 50.276 339.681 50.543C339.343 50.8034 339.173 51.1484 339.173 51.5781C339.173 51.8581 339.248 52.1022 339.398 52.3105C339.554 52.5124 339.789 52.7012 340.101 52.877C340.414 53.0527 340.804 53.2383 341.273 53.4336C341.722 53.6159 342.162 53.8242 342.591 54.0586C343.021 54.2865 343.376 54.5794 343.656 54.9375C343.942 55.2956 344.085 55.7611 344.085 56.334C344.085 56.8939 343.939 57.3919 343.646 57.8281C343.36 58.2578 342.959 58.5931 342.445 58.834C341.937 59.0749 341.345 59.1953 340.667 59.1953C339.541 59.1953 338.5 58.847 337.542 58.1504ZM347.132 61.3438H346.234L347.093 57.2422H348.226L347.132 61.3438ZM365.541 59H364.457L364.398 57.125C363.981 57.7695 363.421 58.2773 362.718 58.6484C362.022 59.013 361.247 59.1953 360.394 59.1953C359.431 59.1953 358.568 58.974 357.806 58.5312C357.051 58.0885 356.452 57.4831 356.009 56.7148C355.573 55.9466 355.355 55.0807 355.355 54.1172C355.355 53.1471 355.573 52.2812 356.009 51.5195C356.452 50.7513 357.051 50.1458 357.806 49.7031C358.568 49.2604 359.431 49.0391 360.394 49.0391C361.227 49.0391 361.989 49.2181 362.679 49.5762C363.369 49.9277 363.923 50.416 364.339 51.041V44.3516H365.541V59ZM360.472 58.1113C361.182 58.1113 361.83 57.9486 362.416 57.623C363.001 57.291 363.467 56.8418 363.812 56.2754C364.164 55.7025 364.339 55.0547 364.339 54.332V53.8926C364.339 53.1764 364.167 52.5352 363.822 51.9688C363.477 51.3958 363.011 50.9466 362.425 50.6211C361.846 50.2891 361.195 50.123 360.472 50.123C359.736 50.123 359.072 50.2988 358.48 50.6504C357.894 50.9954 357.432 51.4707 357.093 52.0762C356.755 52.6751 356.585 53.3522 356.585 54.1074C356.585 54.8691 356.755 55.5527 357.093 56.1582C357.432 56.7572 357.894 57.2324 358.48 57.584C359.066 57.9355 359.73 58.1113 360.472 58.1113ZM376.38 59H375.355L375.257 57.3691C374.932 57.929 374.476 58.375 373.89 58.707C373.304 59.0326 372.637 59.1953 371.888 59.1953C371.198 59.1953 370.58 59.0618 370.033 58.7949C369.492 58.5215 369.066 58.1504 368.753 57.6816C368.441 57.2064 368.285 56.6693 368.285 56.0703C368.285 55.4453 368.454 54.8919 368.792 54.4102C369.131 53.9284 369.597 53.5508 370.189 53.2773C370.781 52.9974 371.455 52.8574 372.21 52.8574C372.738 52.8574 373.262 52.9258 373.783 53.0625C374.304 53.1992 374.769 53.3913 375.179 53.6387V52.9746C375.179 52.3822 375.049 51.8743 374.789 51.4512C374.528 51.028 374.17 50.7057 373.714 50.4844C373.265 50.2565 372.754 50.1426 372.181 50.1426C371.686 50.1426 371.192 50.2337 370.697 50.416C370.202 50.5918 369.74 50.8555 369.31 51.207L368.88 50.1719C369.414 49.8008 369.984 49.5208 370.589 49.332C371.201 49.1367 371.81 49.0391 372.416 49.0391C373.229 49.0391 373.929 49.2051 374.515 49.5371C375.108 49.8691 375.567 50.3411 375.892 50.9531C376.218 51.5586 376.38 52.2812 376.38 53.1211V59ZM372.083 58.0918C372.65 58.0918 373.161 57.9714 373.617 57.7305C374.079 57.4831 374.45 57.138 374.73 56.6953C375.01 56.2461 375.16 55.7318 375.179 55.1523V54.8203C374.776 54.5143 374.336 54.2832 373.861 54.127C373.392 53.9642 372.904 53.8828 372.396 53.8828C371.569 53.8828 370.882 54.0814 370.335 54.4785C369.795 54.8757 369.525 55.3867 369.525 56.0117C369.525 56.4023 369.636 56.7572 369.857 57.0762C370.085 57.3887 370.391 57.6361 370.775 57.8184C371.166 58.0007 371.602 58.0918 372.083 58.0918ZM384.457 58.7754C383.864 59.0553 383.278 59.1953 382.699 59.1953C382.152 59.1953 381.673 59.0749 381.263 58.834C380.86 58.5931 380.544 58.2546 380.316 57.8184C380.088 57.3822 379.974 56.8743 379.974 56.2949V50.3184H378.265V49.2344H380.023V46.793H381.175V49.2344H384.164V50.3184H381.175V56.0801C381.175 56.6921 381.338 57.1836 381.664 57.5547C381.989 57.9258 382.419 58.1113 382.953 58.1113C383.376 58.1113 383.802 57.9876 384.232 57.7402L384.457 58.7754ZM394.212 59H393.187L393.089 57.3691C392.764 57.929 392.308 58.375 391.722 58.707C391.136 59.0326 390.469 59.1953 389.72 59.1953C389.03 59.1953 388.412 59.0618 387.865 58.7949C387.324 58.5215 386.898 58.1504 386.585 57.6816C386.273 57.2064 386.117 56.6693 386.117 56.0703C386.117 55.4453 386.286 54.8919 386.625 54.4102C386.963 53.9284 387.429 53.5508 388.021 53.2773C388.613 52.9974 389.287 52.8574 390.042 52.8574C390.57 52.8574 391.094 52.9258 391.615 53.0625C392.136 53.1992 392.601 53.3913 393.011 53.6387V52.9746C393.011 52.3822 392.881 51.8743 392.621 51.4512C392.36 51.028 392.002 50.7057 391.546 50.4844C391.097 50.2565 390.586 50.1426 390.013 50.1426C389.518 50.1426 389.024 50.2337 388.529 50.416C388.034 50.5918 387.572 50.8555 387.142 51.207L386.712 50.1719C387.246 49.8008 387.816 49.5208 388.421 49.332C389.033 49.1367 389.642 49.0391 390.248 49.0391C391.061 49.0391 391.761 49.2051 392.347 49.5371C392.94 49.8691 393.399 50.3411 393.724 50.9531C394.05 51.5586 394.212 52.2812 394.212 53.1211V59ZM389.916 58.0918C390.482 58.0918 390.993 57.9714 391.449 57.7305C391.911 57.4831 392.282 57.138 392.562 56.6953C392.842 56.2461 392.992 55.7318 393.011 55.1523V54.8203C392.608 54.5143 392.168 54.2832 391.693 54.127C391.224 53.9642 390.736 53.8828 390.228 53.8828C389.401 53.8828 388.714 54.0814 388.167 54.4785C387.627 54.8757 387.357 55.3867 387.357 56.0117C387.357 56.4023 387.468 56.7572 387.689 57.0762C387.917 57.3887 388.223 57.6361 388.607 57.8184C388.998 58.0007 389.434 58.0918 389.916 58.0918ZM397.865 59.1953C397.63 59.1953 397.438 59.1204 397.289 58.9707C397.139 58.821 397.064 58.6257 397.064 58.3848C397.064 58.1439 397.139 57.9486 397.289 57.7988C397.438 57.6426 397.63 57.5645 397.865 57.5645C398.106 57.5645 398.301 57.6426 398.451 57.7988C398.607 57.9486 398.685 58.1439 398.685 58.3848C398.685 58.6257 398.607 58.821 398.451 58.9707C398.301 59.1204 398.106 59.1953 397.865 59.1953ZM402.298 59.1953C402.064 59.1953 401.872 59.1204 401.722 58.9707C401.572 58.821 401.498 58.6257 401.498 58.3848C401.498 58.1439 401.572 57.9486 401.722 57.7988C401.872 57.6426 402.064 57.5645 402.298 57.5645C402.539 57.5645 402.735 57.6426 402.884 57.7988C403.041 57.9486 403.119 58.1439 403.119 58.3848C403.119 58.6257 403.041 58.821 402.884 58.9707C402.735 59.1204 402.539 59.1953 402.298 59.1953ZM406.732 59.1953C406.498 59.1953 406.306 59.1204 406.156 58.9707C406.006 58.821 405.931 58.6257 405.931 58.3848C405.931 58.1439 406.006 57.9486 406.156 57.7988C406.306 57.6426 406.498 57.5645 406.732 57.5645C406.973 57.5645 407.168 57.6426 407.318 57.7988C407.474 57.9486 407.552 58.1439 407.552 58.3848C407.552 58.6257 407.474 58.821 407.318 58.9707C407.168 59.1204 406.973 59.1953 406.732 59.1953Z" fill="#525252"/>
<path d="M65.2866 43H89.2866M65.2866 53.5H89.2866M65.2866 64H89.2866" stroke="#6D6D6D" stroke-width="1.67747" stroke-linecap="round" stroke-linejoin="round"/>
<path d="M588.641 67.77L576.117 55.246C575.117 56.098 573.967 56.7573 572.667 57.224C571.367 57.6907 570.06 57.924 568.747 57.924C565.544 57.924 562.833 56.8153 560.615 54.598C558.396 52.3807 557.287 49.6707 557.287 46.468C557.287 43.2653 558.395 40.554 560.611 38.334C562.827 36.114 565.536 35.0027 568.739 35C571.941 34.9973 574.653 36.1067 576.875 38.328C579.096 40.5493 580.207 43.2607 580.209 46.462C580.209 47.8513 579.963 49.196 579.471 50.496C578.979 51.796 578.332 52.908 577.531 53.832L590.055 66.354L588.641 67.77ZM568.747 55.922C571.4 55.922 573.641 55.0087 575.469 53.182C577.297 51.3553 578.21 49.1147 578.209 46.46C578.207 43.8053 577.294 41.5653 575.469 39.74C573.643 37.9147 571.403 37.0013 568.749 37C566.094 36.9987 563.853 37.912 562.027 39.74C560.2 41.568 559.287 43.808 559.287 46.46C559.287 49.112 560.2 51.352 562.027 53.18C563.853 55.008 566.093 55.9233 568.747 55.922Z" fill="#353535"/>
<g clip-path="url(#clip1_3463_69)">
<g filter="url(#filter1_d_3463_69)">
<rect x="722.287" y="21" width="60" height="54" rx="11" fill="#6D6D6D"/>
<path d="M752.537 36.5C752.537 36.3011 752.458 36.1103 752.317 35.9697C752.176 35.829 751.986 35.75 751.787 35.75C751.588 35.75 751.397 35.829 751.256 35.9697C751.116 36.1103 751.037 36.3011 751.037 36.5V38.795C747.662 39.17 745.037 42.02 745.037 45.5V54.365L742.652 56.75H760.922L758.537 54.365V45.5C758.537 42.02 755.912 39.17 752.537 38.795V36.5ZM751.787 34.25C752.383 34.25 752.956 34.4871 753.378 34.909C753.8 35.331 754.037 35.9033 754.037 36.5V37.565C757.502 38.54 760.037 41.75 760.037 45.5V53.75L764.537 58.25H739.037L743.537 53.75V45.5C743.537 41.75 746.072 38.54 749.537 37.565V36.5C749.537 35.9033 749.774 35.331 750.196 34.909C750.618 34.4871 751.19 34.25 751.787 34.25ZM751.787 62.75C750.922 62.7502 750.084 62.4517 749.414 61.905C748.745 61.3583 748.285 60.597 748.112 59.75H749.672C749.826 60.1877 750.112 60.5668 750.491 60.835C750.87 61.1031 751.322 61.2471 751.787 61.2471C752.251 61.2471 752.703 61.1031 753.082 60.835C753.461 60.5668 753.747 60.1877 753.902 59.75H755.462C755.289 60.597 754.828 61.3583 754.159 61.905C753.489 62.4517 752.651 62.7502 751.787 62.75Z" fill="white"/>
</g>
<g filter="url(#filter2_d_3463_69)">
<rect x="806.287" y="21" width="60" height="54" rx="11" fill="#6D6D6D"/>
<path d="M850.412 48.25C850.414 50.0717 850.057 51.8761 849.361 53.5595C848.665 55.243 847.643 56.7724 846.354 58.06C845.065 59.3493 843.535 60.3719 841.85 61.0694C840.165 61.7669 838.36 62.1256 836.537 62.125C834.574 62.1298 832.634 61.7156 830.844 60.91L825.044 61.768C824.756 61.815 824.461 61.791 824.184 61.6981C823.907 61.6051 823.658 61.4461 823.456 61.2347C823.255 61.0233 823.109 60.766 823.03 60.4851C822.95 60.2043 822.941 59.9083 823.002 59.623L823.808 53.7385C823.043 52.0101 822.653 50.1398 822.662 48.25C822.659 46.4283 823.016 44.624 823.713 42.9406C824.409 41.2571 825.431 39.7277 826.719 38.44C828.008 37.1506 829.539 36.128 831.223 35.4305C832.908 34.733 834.714 34.3743 836.537 34.375C840.219 34.3752 843.75 35.8374 846.354 38.44C847.642 39.7281 848.664 41.2576 849.36 42.9409C850.056 44.6243 850.414 46.4284 850.412 48.25Z" stroke="white" stroke-width="2.25" stroke-linecap="round" stroke-linejoin="round"/>
</g>
</g>
</g>
<rect x="4.78662" y="-0.5" width="882" height="105" stroke="white" shape-rendering="crispEdges"/>
</g>
<defs>
<filter id="filter0_d_3463_69" x="0.286621" y="-1" width="891" height="115" filterUnits="userSpaceOnUse" color-interpolation-filters="sRGB">
<feFlood flood-opacity="0" result="BackgroundImageFix"/>
<feColorMatrix in="SourceAlpha" type="matrix" values="0 0 0 0 0 0 0 0 0 0 0 0 0 0 0 0 0 0 127 0" result="hardAlpha"/>
<feOffset dy="5"/>
<feGaussianBlur stdDeviation="2"/>
<feComposite in2="hardAlpha" operator="out"/>
<feColorMatrix type="matrix" values="0 0 0 0 0.141176 0 0 0 0 0.584314 0 0 0 0 0.203922 0 0 0 1 0"/>
<feBlend mode="normal" in2="BackgroundImageFix" result="effect1_dropShadow_3463_69"/>
<feBlend mode="normal" in="SourceGraphic" in2="effect1_dropShadow_3463_69" result="shape"/>
</filter>
<filter id="filter1_d_3463_69" x="720.287" y="20" width="68" height="62" filterUnits="userSpaceOnUse" color-interpolation-filters="sRGB">
<feFlood flood-opacity="0" result="BackgroundImageFix"/>
<feColorMatrix in="SourceAlpha" type="matrix" values="0 0 0 0 0 0 0 0 0 0 0 0 0 0 0 0 0 0 127 0" result="hardAlpha"/>
<feOffset dx="2" dy="3"/>
<feGaussianBlur stdDeviation="2"/>
<feComposite in2="hardAlpha" operator="out"/>
<feColorMatrix type="matrix" values="0 0 0 0 0 0 0 0 0 0 0 0 0 0 0 0 0 0 0.25 0"/>
<feBlend mode="normal" in2="BackgroundImageFix" result="effect1_dropShadow_3463_69"/>
<feBlend mode="normal" in="SourceGraphic" in2="effect1_dropShadow_3463_69" result="shape"/>
</filter>
<filter id="filter2_d_3463_69" x="804.287" y="20" width="68" height="62" filterUnits="userSpaceOnUse" color-interpolation-filters="sRGB">
<feFlood flood-opacity="0" result="BackgroundImageFix"/>
<feColorMatrix in="SourceAlpha" type="matrix" values="0 0 0 0 0 0 0 0 0 0 0 0 0 0 0 0 0 0 127 0" result="hardAlpha"/>
<feOffset dx="2" dy="3"/>
<feGaussianBlur stdDeviation="2"/>
<feComposite in2="hardAlpha" operator="out"/>
<feColorMatrix type="matrix" values="0 0 0 0 0 0 0 0 0 0 0 0 0 0 0 0 0 0 0.25 0"/>
<feBlend mode="normal" in2="BackgroundImageFix" result="effect1_dropShadow_3463_69"/>
<feBlend mode="normal" in="SourceGraphic" in2="effect1_dropShadow_3463_69" result="shape"/>
</filter>
<clipPath id="clip0_3463_69">
<rect x="4.28662" y="-1" width="883" height="106" fill="white"/>
</clipPath>
<clipPath id="clip1_3463_69">
<rect width="155" height="63" fill="white" transform="translate(722.287 21)"/>
</clipPath>
</defs>
</svg>
