<svg width="872" height="39" viewBox="0 0 872 39" fill="none" xmlns="http://www.w3.org/2000/svg">
<g filter="url(#filter0_d_3463_111)">
<g clip-path="url(#clip0_3463_111)">
<rect x="37.7681" width="92.6815" height="34.7556" rx="3.40741" fill="#6D6D6D"/>
<path d="M43.6405 21.9033H42.4692V14.9501H39.9722V13.9172H46.1375V14.9501H43.6405V21.9033ZM51.8334 21.2698C51.1732 21.7631 50.4474 22.0098 49.6559 22.0098C49.0915 22.0098 48.5857 21.8856 48.1385 21.6371C47.6913 21.3887 47.3381 21.0497 47.079 20.6202C46.8199 20.1907 46.6904 19.7063 46.6904 19.1667C46.6904 18.6521 46.8093 18.1924 47.0471 17.7878C47.2849 17.3796 47.6096 17.0584 48.0214 16.8242C48.4331 16.5899 48.8998 16.4728 49.4216 16.4728C49.9611 16.4728 50.435 16.6005 50.8431 16.8561C51.2549 17.1117 51.5743 17.4684 51.8015 17.9262C52.0322 18.3806 52.1475 18.9076 52.1475 19.5075V19.6779H47.8723C47.9362 19.9547 48.0569 20.1978 48.2343 20.4073C48.4118 20.6131 48.6319 20.7746 48.8945 20.8917C49.1572 21.0053 49.4535 21.0621 49.7836 21.0621C50.3728 21.0621 50.9141 20.8704 51.4075 20.4871L51.8334 21.2698ZM47.8244 18.9218H51.1306C51.0951 18.6237 51.0029 18.3646 50.8538 18.1445C50.7047 17.9209 50.5113 17.747 50.2735 17.6228C50.0392 17.495 49.7748 17.4311 49.4802 17.4311C49.182 17.4311 48.914 17.495 48.6762 17.6228C48.4384 17.747 48.245 17.9209 48.0959 18.1445C47.9504 18.3681 47.8599 18.6272 47.8244 18.9218ZM58.6101 21.9033H57.6677L57.6039 21.2218C57.4086 21.4703 57.162 21.6637 56.8638 21.8022C56.5657 21.9406 56.2356 22.0098 55.8735 22.0098C55.4937 22.0098 55.1548 21.9353 54.8566 21.7862C54.5585 21.6371 54.3242 21.433 54.1539 21.1739C53.9835 20.9148 53.8983 20.6202 53.8983 20.2901C53.8983 19.9423 53.9906 19.637 54.1751 19.3744C54.3597 19.1082 54.6117 18.9005 54.9312 18.7515C55.2506 18.5988 55.6144 18.5225 56.0226 18.5225C56.2782 18.5225 56.5373 18.5527 56.7999 18.613C57.0661 18.6734 57.3057 18.7586 57.5187 18.8686V18.6716C57.5187 18.4125 57.4512 18.1907 57.3164 18.0061C57.185 17.818 57.004 17.6742 56.7733 17.5748C56.5461 17.4755 56.2941 17.4258 56.0173 17.4258C55.7724 17.4258 55.5221 17.4684 55.2666 17.5536C55.0146 17.6387 54.7768 17.7701 54.5532 17.9475L54.2231 17.0584C54.5461 16.8667 54.8815 16.7212 55.2293 16.6218C55.5807 16.5225 55.925 16.4728 56.2622 16.4728C56.7449 16.4728 57.1602 16.5686 57.508 16.7603C57.8594 16.9519 58.1309 17.2252 58.3226 17.5802C58.5143 17.9316 58.6101 18.3468 58.6101 18.826V21.9033ZM56.0865 21.0834C56.3385 21.0834 56.571 21.0319 56.7839 20.929C56.9969 20.8225 57.1691 20.6735 57.3004 20.4818C57.4353 20.2866 57.508 20.0594 57.5187 19.8003V19.7258C57.3376 19.5909 57.1336 19.4862 56.9064 19.4117C56.6828 19.3336 56.4539 19.2945 56.2196 19.2945C55.8611 19.2945 55.563 19.3797 55.3251 19.5501C55.0873 19.7204 54.9684 19.9387 54.9684 20.2049C54.9684 20.3718 55.0164 20.5226 55.1122 20.6575C55.2116 20.7888 55.3447 20.8935 55.5115 20.9716C55.6819 21.0461 55.8735 21.0834 56.0865 21.0834ZM69.4224 21.9033H68.331V19.1188C68.331 18.59 68.2174 18.18 67.9903 17.889C67.7667 17.5979 67.4508 17.4524 67.0426 17.4524C66.6273 17.4524 66.3025 17.5997 66.0683 17.8943C65.834 18.1889 65.7169 18.5971 65.7169 19.1188V21.9033H64.6255V19.1188C64.6255 18.59 64.5119 18.18 64.2847 17.889C64.0576 17.5979 63.7399 17.4524 63.3317 17.4524C62.9164 17.4524 62.5917 17.5997 62.3574 17.8943C62.1231 18.1889 62.006 18.5971 62.006 19.1188V21.9033H60.9146V16.5792H61.7984L61.841 17.5056C62.0184 17.1684 62.258 16.9129 62.5597 16.739C62.865 16.5615 63.2234 16.4728 63.6352 16.4728C64.0718 16.4728 64.4462 16.5686 64.7586 16.7603C65.0709 16.9519 65.3069 17.227 65.4667 17.5855C65.6441 17.2199 65.889 16.9431 66.2014 16.7549C66.5173 16.5668 66.8917 16.4728 67.3248 16.4728C67.9849 16.4728 68.4996 16.6822 68.8687 17.101C69.2379 17.5198 69.4224 18.1037 69.4224 18.8526V21.9033ZM83.4018 21.9033H82.2305V15.573L79.7867 20.5617H78.7964L76.3633 15.5996V21.9033H75.192V13.9172H76.6934L79.2916 19.2998L81.8897 13.9172H83.4018V21.9033ZM90.5565 21.2698C89.8963 21.7631 89.1704 22.0098 88.3789 22.0098C87.8146 22.0098 87.3088 21.8856 86.8616 21.6371C86.4143 21.3887 86.0612 21.0497 85.8021 20.6202C85.543 20.1907 85.4134 19.7063 85.4134 19.1667C85.4134 18.6521 85.5323 18.1924 85.7701 17.7878C86.0079 17.3796 86.3327 17.0584 86.7444 16.8242C87.1562 16.5899 87.6229 16.4728 88.1447 16.4728C88.6842 16.4728 89.158 16.6005 89.5662 16.8561C89.9779 17.1117 90.2974 17.4684 90.5245 17.9262C90.7552 18.3806 90.8706 18.9076 90.8706 19.5075V19.6779H86.5954C86.6592 19.9547 86.7799 20.1978 86.9574 20.4073C87.1349 20.6131 87.3549 20.7746 87.6176 20.8917C87.8802 21.0053 88.1766 21.0621 88.5067 21.0621C89.0959 21.0621 89.6372 20.8704 90.1305 20.4871L90.5565 21.2698ZM86.5474 18.9218H89.8537C89.8182 18.6237 89.7259 18.3646 89.5768 18.1445C89.4278 17.9209 89.2343 17.747 88.9965 17.6228C88.7623 17.495 88.4978 17.4311 88.2032 17.4311C87.9051 17.4311 87.6371 17.495 87.3993 17.6228C87.1615 17.747 86.968 17.9209 86.819 18.1445C86.6734 18.3681 86.5829 18.6272 86.5474 18.9218ZM101.395 21.9033H100.304V19.1188C100.304 18.59 100.19 18.18 99.9633 17.889C99.7396 17.5979 99.4237 17.4524 99.0156 17.4524C98.6003 17.4524 98.2755 17.5997 98.0413 17.8943C97.807 18.1889 97.6899 18.5971 97.6899 19.1188V21.9033H96.5984V19.1188C96.5984 18.59 96.4849 18.18 96.2577 17.889C96.0305 17.5979 95.7129 17.4524 95.3047 17.4524C94.8894 17.4524 94.5646 17.5997 94.3304 17.8943C94.0961 18.1889 93.979 18.5971 93.979 19.1188V21.9033H92.8876V16.5792H93.7714L93.8139 17.5056C93.9914 17.1684 94.231 16.9129 94.5327 16.739C94.8379 16.5615 95.1964 16.4728 95.6082 16.4728C96.0447 16.4728 96.4192 16.5686 96.7315 16.7603C97.0439 16.9519 97.2799 17.227 97.4396 17.5855C97.6171 17.2199 97.862 16.9431 98.1744 16.7549C98.4903 16.5668 98.8647 16.4728 99.2977 16.4728C99.9579 16.4728 100.473 16.6822 100.842 17.101C101.211 17.5198 101.395 18.1037 101.395 18.8526V21.9033ZM104.658 21.9033H103.695V13.9172H104.786V17.2607C105.027 17.0123 105.31 16.8188 105.633 16.6804C105.959 16.542 106.314 16.4728 106.697 16.4728C107.212 16.4728 107.67 16.5934 108.071 16.8348C108.472 17.0762 108.788 17.4063 109.019 17.8251C109.253 18.2404 109.37 18.7124 109.37 19.2413C109.37 19.7666 109.253 20.2387 109.019 20.6575C108.788 21.0763 108.472 21.4064 108.071 21.6478C107.67 21.8891 107.212 22.0098 106.697 22.0098C106.293 22.0098 105.92 21.9335 105.579 21.7809C105.242 21.6247 104.953 21.4117 104.711 21.142L104.658 21.9033ZM106.522 21.0302C106.852 21.0302 107.146 20.9521 107.405 20.7959C107.668 20.6397 107.874 20.4268 108.023 20.157C108.176 19.8873 108.252 19.582 108.252 19.2413C108.252 18.9005 108.176 18.5953 108.023 18.3255C107.874 18.0558 107.668 17.8428 107.405 17.6867C107.146 17.5305 106.852 17.4524 106.522 17.4524C106.206 17.4524 105.92 17.5234 105.664 17.6654C105.412 17.8073 105.208 18.0025 105.052 18.251C104.896 18.4995 104.807 18.7834 104.786 19.1029V19.3744C104.807 19.6903 104.894 19.9742 105.047 20.2262C105.203 20.4747 105.407 20.6717 105.659 20.8172C105.915 20.9592 106.202 21.0302 106.522 21.0302ZM116.131 21.2698C115.471 21.7631 114.745 22.0098 113.953 22.0098C113.389 22.0098 112.883 21.8856 112.436 21.6371C111.989 21.3887 111.635 21.0497 111.376 20.6202C111.117 20.1907 110.988 19.7063 110.988 19.1667C110.988 18.6521 111.107 18.1924 111.344 17.7878C111.582 17.3796 111.907 17.0584 112.319 16.8242C112.73 16.5899 113.197 16.4728 113.719 16.4728C114.258 16.4728 114.732 16.6005 115.14 16.8561C115.552 17.1117 115.872 17.4684 116.099 17.9262C116.33 18.3806 116.445 18.9076 116.445 19.5075V19.6779H112.17C112.234 19.9547 112.354 20.1978 112.532 20.4073C112.709 20.6131 112.929 20.7746 113.192 20.8917C113.455 21.0053 113.751 21.0621 114.081 21.0621C114.67 21.0621 115.211 20.8704 115.705 20.4871L116.131 21.2698ZM112.122 18.9218H115.428C115.392 18.6237 115.3 18.3646 115.151 18.1445C115.002 17.9209 114.809 17.747 114.571 17.6228C114.337 17.495 114.072 17.4311 113.778 17.4311C113.479 17.4311 113.211 17.495 112.974 17.6228C112.736 17.747 112.542 17.9209 112.393 18.1445C112.248 18.3681 112.157 18.6272 112.122 18.9218ZM119.553 21.9033H118.462V16.5792H119.415L119.457 17.5908C119.642 17.2394 119.896 16.9661 120.219 16.7709C120.545 16.5721 120.92 16.4728 121.342 16.4728C121.445 16.4728 121.548 16.4799 121.651 16.4941C121.757 16.5047 121.864 16.5225 121.97 16.5473L121.832 17.5323C121.626 17.479 121.424 17.4524 121.225 17.4524C120.895 17.4524 120.604 17.5323 120.352 17.692C120.1 17.8482 119.903 18.0647 119.761 18.3415C119.623 18.6184 119.553 18.9378 119.553 19.2998V21.9033ZM123.306 21.4401L123.572 20.4605C123.693 20.5812 123.837 20.6877 124.003 20.7799C124.174 20.8722 124.353 20.945 124.541 20.9982C124.733 21.0479 124.921 21.0728 125.105 21.0728C125.397 21.0728 125.631 21.0107 125.808 20.8864C125.986 20.7622 126.074 20.5971 126.074 20.3913C126.074 20.2387 126.025 20.1127 125.925 20.0133C125.83 19.9103 125.7 19.8216 125.537 19.7471C125.377 19.6725 125.205 19.5998 125.02 19.5288C124.782 19.44 124.545 19.3371 124.307 19.22C124.073 19.1029 123.876 18.9467 123.716 18.7515C123.556 18.5563 123.476 18.2989 123.476 17.9795C123.476 17.6742 123.554 17.4098 123.711 17.1862C123.867 16.959 124.085 16.7833 124.365 16.6591C124.646 16.5349 124.969 16.4728 125.334 16.4728C125.902 16.4728 126.465 16.6147 127.022 16.8987L126.703 17.8304C126.589 17.7488 126.454 17.676 126.298 17.6121C126.142 17.5482 125.982 17.4985 125.819 17.463C125.656 17.424 125.505 17.4045 125.366 17.4045C125.136 17.4045 124.949 17.4559 124.807 17.5589C124.669 17.6618 124.6 17.8002 124.6 17.9742C124.6 18.0806 124.633 18.1782 124.701 18.267C124.768 18.3522 124.875 18.4373 125.02 18.5225C125.169 18.6042 125.37 18.6965 125.622 18.7994C125.863 18.8952 126.105 19.0052 126.346 19.1295C126.587 19.2537 126.788 19.4152 126.948 19.614C127.111 19.8127 127.192 20.0736 127.192 20.3966C127.192 20.7161 127.107 20.9982 126.937 21.2431C126.767 21.4845 126.529 21.6726 126.224 21.8075C125.922 21.9424 125.57 22.0098 125.169 22.0098C124.506 22.0098 123.884 21.8199 123.306 21.4401Z" fill="white"/>
<path d="M175.63 18.4961H175.055L172.914 11.7771L170.769 18.4961H170.194L167.596 10.51H168.33L170.481 17.2343L172.627 10.51H173.202L175.342 17.2236L177.483 10.51H178.217L175.63 18.4961ZM180.479 11.3033C180.355 11.3033 180.25 11.2607 180.165 11.1755C180.083 11.0868 180.043 10.9803 180.043 10.856C180.043 10.7354 180.083 10.6324 180.165 10.5473C180.25 10.4621 180.355 10.4195 180.479 10.4195C180.607 10.4195 180.713 10.4621 180.799 10.5473C180.887 10.6324 180.932 10.7354 180.932 10.856C180.932 10.9803 180.887 11.0868 180.799 11.1755C180.713 11.2607 180.607 11.3033 180.479 11.3033ZM180.809 18.4961H180.154V13.172H180.809V18.4961ZM186.388 18.3736C186.065 18.5263 185.746 18.6026 185.43 18.6026C185.131 18.6026 184.871 18.5369 184.647 18.4056C184.427 18.2743 184.255 18.0897 184.131 17.8519C184.006 17.6141 183.944 17.3372 183.944 17.0213V13.763H183.013V13.172H183.971V11.841H184.599V13.172H186.228V13.763H184.599V16.9042C184.599 17.2378 184.688 17.5058 184.865 17.7081C185.043 17.9104 185.277 18.0116 185.568 18.0116C185.799 18.0116 186.031 17.9442 186.266 17.8093L186.388 18.3736ZM188.538 18.4961V10.51H189.193V14.125C189.576 13.4187 190.226 13.0655 191.142 13.0655C191.848 13.0655 192.398 13.2767 192.792 13.6991C193.19 14.1215 193.388 14.7125 193.388 15.472V18.4961H192.733V15.6051C192.733 14.9911 192.579 14.5137 192.27 14.1729C191.961 13.8287 191.532 13.6565 190.982 13.6565C190.428 13.6565 189.992 13.8304 189.672 14.1783C189.353 14.5261 189.193 15.0017 189.193 15.6051V18.4961H188.538ZM198.259 18.6026C197.734 18.6026 197.262 18.4819 196.843 18.2405C196.424 17.9992 196.094 17.6709 195.852 17.2556C195.611 16.8368 195.49 16.3629 195.49 15.8341C195.49 15.3087 195.611 14.8385 195.852 14.4232C196.094 14.0043 196.424 13.6743 196.843 13.4329C197.262 13.188 197.734 13.0655 198.259 13.0655C198.781 13.0655 199.249 13.188 199.665 13.4329C200.08 13.6743 200.408 14.0043 200.649 14.4232C200.891 14.8385 201.012 15.3087 201.012 15.8341C201.012 16.3594 200.891 16.8314 200.649 17.2503C200.408 17.6691 200.08 17.9992 199.665 18.2405C199.249 18.4819 198.781 18.6026 198.259 18.6026ZM198.254 18.0116C198.651 18.0116 199.006 17.9158 199.318 17.7241C199.634 17.5324 199.883 17.2733 200.064 16.9468C200.248 16.6167 200.341 16.244 200.341 15.8287C200.341 15.4206 200.248 15.0532 200.064 14.7266C199.883 14.3966 199.634 14.1357 199.318 13.944C199.006 13.7523 198.651 13.6565 198.254 13.6565C197.856 13.6565 197.499 13.7523 197.183 13.944C196.868 14.1357 196.617 14.3966 196.433 14.7266C196.252 15.0532 196.161 15.4206 196.161 15.8287C196.161 16.244 196.252 16.6167 196.433 16.9468C196.617 17.2733 196.868 17.5324 197.183 17.7241C197.499 17.9158 197.856 18.0116 198.254 18.0116ZM207.932 18.4961H207.352L207.33 17.4952C207.142 17.8537 206.883 18.1287 206.553 18.3204C206.226 18.5085 205.834 18.6026 205.376 18.6026C204.674 18.6026 204.12 18.3896 203.715 17.9637C203.314 17.5342 203.114 16.945 203.114 16.1961V13.172H203.769V16.1535C203.769 16.7214 203.923 17.1722 204.232 17.5058C204.541 17.8359 204.958 18.001 205.483 18.001C206.026 18.001 206.461 17.827 206.787 17.4792C207.114 17.1278 207.277 16.6611 207.277 16.079V13.172H207.932V18.4961ZM213.463 18.3736C213.14 18.5263 212.82 18.6026 212.504 18.6026C212.206 18.6026 211.945 18.5369 211.722 18.4056C211.502 18.2743 211.33 18.0897 211.205 17.8519C211.081 17.6141 211.019 17.3372 211.019 17.0213V13.763H210.087V13.172H211.046V11.841H211.674V13.172H213.303V13.763H211.674V16.9042C211.674 17.2378 211.763 17.5058 211.94 17.7081C212.118 17.9104 212.352 18.0116 212.643 18.0116C212.874 18.0116 213.106 17.9442 213.34 17.8093L213.463 18.3736ZM221.9 18.4961H221.197V11.1382H218.562V10.51H224.541V11.1382H221.9V18.4961ZM230.306 17.8306C229.653 18.3452 228.928 18.6026 228.133 18.6026C227.583 18.6026 227.09 18.4801 226.653 18.2352C226.22 17.9868 225.88 17.6496 225.631 17.2236C225.383 16.7977 225.258 16.315 225.258 15.7755C225.258 15.2537 225.374 14.7888 225.604 14.3806C225.839 13.9724 226.158 13.6512 226.563 13.4169C226.967 13.1827 227.427 13.0655 227.942 13.0655C228.464 13.0655 228.923 13.1898 229.321 13.4382C229.718 13.6831 230.029 14.0239 230.252 14.4604C230.476 14.8935 230.588 15.3957 230.588 15.9672V16.1322H225.967C226.009 16.5049 226.132 16.8314 226.334 17.1118C226.54 17.3922 226.802 17.6105 227.122 17.7667C227.441 17.9229 227.8 18.001 228.197 18.001C228.85 18.001 229.45 17.7844 229.997 17.3514L230.306 17.8306ZM225.945 15.5679H229.976C229.944 15.1881 229.839 14.8562 229.661 14.5723C229.484 14.2883 229.25 14.0665 228.959 13.9067C228.671 13.747 228.343 13.6672 227.974 13.6672C227.601 13.6672 227.266 13.747 226.967 13.9067C226.673 14.0665 226.435 14.2901 226.254 14.5776C226.077 14.8615 225.974 15.1916 225.945 15.5679ZM236.944 18.4961H236.385L236.332 17.607C236.154 17.9122 235.906 18.1554 235.586 18.3364C235.267 18.5138 234.903 18.6026 234.495 18.6026C234.119 18.6026 233.781 18.5298 233.483 18.3843C233.189 18.2352 232.956 18.0329 232.786 17.7773C232.615 17.5182 232.53 17.2254 232.53 16.8989C232.53 16.5581 232.623 16.2564 232.807 15.9938C232.992 15.7311 233.245 15.5253 233.568 15.3762C233.891 15.2236 234.259 15.1473 234.671 15.1473C234.958 15.1473 235.244 15.1845 235.528 15.2591C235.812 15.3336 236.065 15.4383 236.289 15.5732V15.2111C236.289 14.8881 236.218 14.6113 236.076 14.3806C235.934 14.1499 235.739 13.9742 235.49 13.8535C235.246 13.7293 234.967 13.6672 234.655 13.6672C234.385 13.6672 234.115 13.7168 233.845 13.8162C233.576 13.9121 233.324 14.0558 233.089 14.2475L232.855 13.6831C233.146 13.4808 233.457 13.3282 233.787 13.2253C234.12 13.1188 234.452 13.0655 234.782 13.0655C235.226 13.0655 235.608 13.156 235.927 13.3371C236.25 13.5181 236.5 13.7754 236.678 14.1091C236.855 14.4391 236.944 14.8331 236.944 15.291V18.4961ZM234.601 18.001C234.91 18.001 235.189 17.9353 235.437 17.804C235.689 17.6691 235.892 17.481 236.044 17.2396C236.197 16.9947 236.278 16.7143 236.289 16.3984V16.2174C236.069 16.0506 235.829 15.9246 235.57 15.8394C235.315 15.7506 235.049 15.7063 234.772 15.7063C234.321 15.7063 233.946 15.8145 233.648 16.031C233.354 16.2476 233.206 16.5262 233.206 16.8669C233.206 17.0799 233.267 17.2733 233.387 17.4473C233.512 17.6176 233.678 17.7525 233.888 17.8519C234.101 17.9513 234.339 18.001 234.601 18.001ZM247.831 18.4961H247.176V15.6051C247.176 14.9911 247.037 14.5137 246.761 14.1729C246.484 13.8287 246.097 13.6565 245.6 13.6565C245.1 13.6565 244.706 13.8304 244.418 14.1783C244.131 14.5226 243.987 14.9982 243.987 15.6051V18.4961H243.332V15.6051C243.332 14.9911 243.194 14.5137 242.917 14.1729C242.64 13.8287 242.251 13.6565 241.751 13.6565C241.25 13.6565 240.856 13.8304 240.569 14.1783C240.281 14.5226 240.137 14.9982 240.137 15.6051V18.4961H239.483V13.172H240.026L240.052 14.2209C240.223 13.8411 240.464 13.5536 240.776 13.3584C241.092 13.1631 241.469 13.0655 241.905 13.0655C242.377 13.0655 242.776 13.1791 243.103 13.4063C243.43 13.6334 243.664 13.9582 243.806 14.3806C243.965 13.9511 244.209 13.6246 244.535 13.401C244.865 13.1773 245.266 13.0655 245.738 13.0655C246.399 13.0655 246.911 13.2767 247.277 13.6991C247.646 14.1215 247.831 14.7125 247.831 15.472V18.4961Z" fill="black"/>
<path d="M277.319 18.4961H276.579L279.891 10.51H280.668L283.98 18.4961H283.234L282.292 16.1908H278.267L277.319 18.4961ZM278.517 15.5625H282.042L280.28 11.266L278.517 15.5625ZM290.384 17.756C290.128 18.0258 289.827 18.2352 289.479 18.3843C289.134 18.5298 288.762 18.6026 288.361 18.6026C287.835 18.6026 287.363 18.4819 286.944 18.2405C286.529 17.9992 286.201 17.6691 285.959 17.2503C285.718 16.8314 285.597 16.3594 285.597 15.8341C285.597 15.3052 285.718 14.8331 285.959 14.4179C286.201 13.999 286.529 13.6689 286.944 13.4276C287.363 13.1862 287.835 13.0655 288.361 13.0655C288.758 13.0655 289.131 13.1383 289.479 13.2838C289.827 13.4293 290.126 13.637 290.378 13.9067L289.979 14.3273C289.78 14.1179 289.543 13.9564 289.266 13.8429C288.992 13.7257 288.7 13.6672 288.387 13.6672C287.979 13.6672 287.615 13.7612 287.296 13.9493C286.98 14.1339 286.73 14.3895 286.545 14.716C286.364 15.0425 286.274 15.4135 286.274 15.8287C286.274 16.2476 286.364 16.622 286.545 16.9521C286.73 17.2787 286.98 17.536 287.296 17.7241C287.615 17.9087 287.979 18.001 288.387 18.001C288.7 18.001 288.994 17.9442 289.271 17.8306C289.548 17.7135 289.784 17.5502 289.979 17.3408L290.384 17.756ZM296.964 17.756C296.708 18.0258 296.406 18.2352 296.058 18.3843C295.714 18.5298 295.341 18.6026 294.94 18.6026C294.415 18.6026 293.943 18.4819 293.524 18.2405C293.109 17.9992 292.781 17.6691 292.539 17.2503C292.298 16.8314 292.177 16.3594 292.177 15.8341C292.177 15.3052 292.298 14.8331 292.539 14.4179C292.781 13.999 293.109 13.6689 293.524 13.4276C293.943 13.1862 294.415 13.0655 294.94 13.0655C295.338 13.0655 295.711 13.1383 296.058 13.2838C296.406 13.4293 296.706 13.637 296.958 13.9067L296.559 14.3273C296.36 14.1179 296.122 13.9564 295.845 13.8429C295.572 13.7257 295.279 13.6672 294.967 13.6672C294.559 13.6672 294.195 13.7612 293.876 13.9493C293.56 14.1339 293.309 14.3895 293.125 14.716C292.944 15.0425 292.853 15.4135 292.853 15.8287C292.853 16.2476 292.944 16.622 293.125 16.9521C293.309 17.2787 293.56 17.536 293.876 17.7241C294.195 17.9087 294.559 18.001 294.967 18.001C295.279 18.001 295.574 17.9442 295.851 17.8306C296.128 17.7135 296.364 17.5502 296.559 17.3408L296.964 17.756ZM301.525 18.6026C301 18.6026 300.528 18.4819 300.109 18.2405C299.69 17.9992 299.36 17.6709 299.119 17.2556C298.878 16.8368 298.757 16.3629 298.757 15.8341C298.757 15.3087 298.878 14.8385 299.119 14.4232C299.36 14.0043 299.69 13.6743 300.109 13.4329C300.528 13.188 301 13.0655 301.525 13.0655C302.047 13.0655 302.516 13.188 302.931 13.4329C303.346 13.6743 303.675 14.0043 303.916 14.4232C304.157 14.8385 304.278 15.3087 304.278 15.8341C304.278 16.3594 304.157 16.8314 303.916 17.2503C303.675 17.6691 303.346 17.9992 302.931 18.2405C302.516 18.4819 302.047 18.6026 301.525 18.6026ZM301.52 18.0116C301.918 18.0116 302.273 17.9158 302.585 17.7241C302.901 17.5324 303.149 17.2733 303.33 16.9468C303.515 16.6167 303.607 16.244 303.607 15.8287C303.607 15.4206 303.515 15.0532 303.33 14.7266C303.149 14.3966 302.901 14.1357 302.585 13.944C302.273 13.7523 301.918 13.6565 301.52 13.6565C301.123 13.6565 300.766 13.7523 300.45 13.944C300.134 14.1357 299.884 14.3966 299.699 14.7266C299.518 15.0532 299.428 15.4206 299.428 15.8287C299.428 16.244 299.518 16.6167 299.699 16.9468C299.884 17.2733 300.134 17.5324 300.45 17.7241C300.766 17.9158 301.123 18.0116 301.52 18.0116ZM311.198 18.4961H310.618L310.597 17.4952C310.409 17.8537 310.15 18.1287 309.819 18.3204C309.493 18.5085 309.101 18.6026 308.643 18.6026C307.94 18.6026 307.386 18.3896 306.982 17.9637C306.581 17.5342 306.38 16.945 306.38 16.1961V13.172H307.035V16.1535C307.035 16.7214 307.189 17.1722 307.498 17.5058C307.807 17.8359 308.224 18.001 308.749 18.001C309.292 18.001 309.727 17.827 310.054 17.4792C310.38 17.1278 310.544 16.6611 310.544 16.079V13.172H311.198V18.4961ZM318.683 18.4961H318.028V15.5146C318.028 14.9467 317.872 14.4977 317.56 14.1676C317.247 13.834 316.827 13.6672 316.298 13.6672C315.751 13.6672 315.313 13.8429 314.983 14.1942C314.653 14.5421 314.488 15.0071 314.488 15.5891V18.4961H313.833V13.172H314.413L314.435 14.1729C314.619 13.8145 314.878 13.5412 315.212 13.353C315.546 13.1614 315.943 13.0655 316.404 13.0655C317.114 13.0655 317.672 13.2785 318.076 13.7044C318.481 14.1304 318.683 14.7196 318.683 15.472V18.4961ZM324.001 18.3736C323.678 18.5263 323.359 18.6026 323.043 18.6026C322.745 18.6026 322.484 18.5369 322.26 18.4056C322.04 18.2743 321.868 18.0897 321.744 17.8519C321.619 17.6141 321.557 17.3372 321.557 17.0213V13.763H320.626V13.172H321.584V11.841H322.212V13.172H323.841V13.763H322.212V16.9042C322.212 17.2378 322.301 17.5058 322.478 17.7081C322.656 17.9104 322.89 18.0116 323.181 18.0116C323.412 18.0116 323.644 17.9442 323.879 17.8093L324.001 18.3736ZM326.364 11.3033C326.24 11.3033 326.135 11.2607 326.05 11.1755C325.968 11.0868 325.928 10.9803 325.928 10.856C325.928 10.7354 325.968 10.6324 326.05 10.5473C326.135 10.4621 326.24 10.4195 326.364 10.4195C326.492 10.4195 326.598 10.4621 326.684 10.5473C326.772 10.6324 326.817 10.7354 326.817 10.856C326.817 10.9803 326.772 11.0868 326.684 11.1755C326.598 11.2607 326.492 11.3033 326.364 11.3033ZM326.694 18.4961H326.039V13.172H326.694V18.4961ZM334.227 18.4961H333.572V15.5146C333.572 14.9467 333.416 14.4977 333.104 14.1676C332.791 13.834 332.371 13.6672 331.842 13.6672C331.295 13.6672 330.857 13.8429 330.527 14.1942C330.197 14.5421 330.032 15.0071 330.032 15.5891V18.4961H329.377V13.172H329.957L329.978 14.1729C330.163 13.8145 330.422 13.5412 330.756 13.353C331.089 13.1614 331.487 13.0655 331.948 13.0655C332.658 13.0655 333.215 13.2785 333.62 13.7044C334.025 14.1304 334.227 14.7196 334.227 15.472V18.4961ZM338.986 18.4588C338.482 18.4588 338.029 18.3417 337.628 18.1074C337.227 17.8696 336.909 17.5484 336.675 17.1438C336.444 16.7356 336.329 16.276 336.329 15.7648C336.329 15.2502 336.444 14.7905 336.675 14.3859C336.909 13.9777 337.227 13.6565 337.628 13.4223C338.029 13.1844 338.484 13.0655 338.991 13.0655C339.453 13.0655 339.868 13.1667 340.237 13.369C340.61 13.5713 340.908 13.8429 341.131 14.1836L341.163 13.172H341.749V18.363C341.749 18.9628 341.635 19.4793 341.408 19.9123C341.181 20.3453 340.856 20.679 340.434 20.9132C340.012 21.1475 339.508 21.2646 338.922 21.2646C338.088 21.2646 337.373 20.9824 336.776 20.4181L337.085 19.8963C337.575 20.4145 338.184 20.6736 338.911 20.6736C339.362 20.6736 339.749 20.5778 340.072 20.3861C340.398 20.198 340.65 19.9318 340.828 19.5875C341.005 19.2432 341.094 18.8333 341.094 18.3577V17.3834C340.867 17.7135 340.571 17.9761 340.205 18.1713C339.839 18.363 339.433 18.4588 338.986 18.4588ZM339.039 17.8785C339.415 17.8785 339.756 17.7933 340.061 17.6229C340.366 17.4526 340.611 17.2201 340.796 16.9255C340.984 16.6273 341.083 16.2902 341.094 15.9139V15.6158C341.083 15.236 340.984 14.8988 340.796 14.6042C340.611 14.306 340.366 14.0718 340.061 13.9014C339.76 13.731 339.421 13.6459 339.044 13.6459C338.654 13.6459 338.303 13.7399 337.99 13.928C337.681 14.1126 337.436 14.3646 337.255 14.6841C337.078 15 336.989 15.3602 336.989 15.7648C336.989 16.1659 337.078 16.5262 337.255 16.8456C337.436 17.1651 337.681 17.4171 337.99 17.6016C338.299 17.7862 338.649 17.8785 339.039 17.8785Z" fill="black"/>
<path d="M394.087 18.4961H393.384V11.4736L390.467 17.1544H389.812L386.905 11.5056V18.4961H386.202V10.51H387.123L390.142 16.425L393.15 10.51H394.087V18.4961ZM400.869 18.4961H400.31L400.257 17.607C400.079 17.9122 399.831 18.1554 399.511 18.3364C399.192 18.5138 398.828 18.6026 398.42 18.6026C398.044 18.6026 397.706 18.5298 397.408 18.3843C397.114 18.2352 396.881 18.0329 396.711 17.7773C396.54 17.5182 396.455 17.2254 396.455 16.8989C396.455 16.5581 396.548 16.2564 396.732 15.9938C396.917 15.7311 397.17 15.5253 397.493 15.3762C397.816 15.2236 398.184 15.1473 398.596 15.1473C398.883 15.1473 399.169 15.1845 399.453 15.2591C399.737 15.3336 399.99 15.4383 400.214 15.5732V15.2111C400.214 14.8881 400.143 14.6113 400.001 14.3806C399.859 14.1499 399.664 13.9742 399.415 13.8535C399.171 13.7293 398.892 13.6672 398.58 13.6672C398.31 13.6672 398.04 13.7168 397.77 13.8162C397.501 13.9121 397.249 14.0558 397.014 14.2475L396.78 13.6831C397.071 13.4808 397.382 13.3282 397.712 13.2253C398.045 13.1188 398.377 13.0655 398.707 13.0655C399.151 13.0655 399.533 13.156 399.852 13.3371C400.175 13.5181 400.425 13.7754 400.603 14.1091C400.78 14.4391 400.869 14.8331 400.869 15.291V18.4961ZM398.526 18.001C398.835 18.001 399.114 17.9353 399.362 17.804C399.614 17.6691 399.817 17.481 399.969 17.2396C400.122 16.9947 400.203 16.7143 400.214 16.3984V16.2174C399.994 16.0506 399.754 15.9246 399.495 15.8394C399.24 15.7506 398.974 15.7063 398.697 15.7063C398.246 15.7063 397.871 15.8145 397.573 16.031C397.279 16.2476 397.131 16.5262 397.131 16.8669C397.131 17.0799 397.192 17.2733 397.312 17.4473C397.437 17.6176 397.604 17.7525 397.813 17.8519C398.026 17.9513 398.264 18.001 398.526 18.001ZM408.258 18.4961H407.603V15.5146C407.603 14.9467 407.447 14.4977 407.135 14.1676C406.822 13.834 406.402 13.6672 405.873 13.6672C405.326 13.6672 404.888 13.8429 404.558 14.1942C404.228 14.5421 404.063 15.0071 404.063 15.5891V18.4961H403.408V13.172H403.988L404.009 14.1729C404.194 13.8145 404.453 13.5412 404.787 13.353C405.12 13.1614 405.518 13.0655 405.979 13.0655C406.689 13.0655 407.246 13.2785 407.651 13.7044C408.056 14.1304 408.258 14.7196 408.258 15.472V18.4961ZM414.933 18.4961H414.374L414.321 17.607C414.144 17.9122 413.895 18.1554 413.576 18.3364C413.256 18.5138 412.893 18.6026 412.484 18.6026C412.108 18.6026 411.771 18.5298 411.473 18.3843C411.178 18.2352 410.946 18.0329 410.775 17.7773C410.605 17.5182 410.52 17.2254 410.52 16.8989C410.52 16.5581 410.612 16.2564 410.797 15.9938C410.981 15.7311 411.235 15.5253 411.558 15.3762C411.881 15.2236 412.248 15.1473 412.66 15.1473C412.948 15.1473 413.233 15.1845 413.517 15.2591C413.801 15.3336 414.055 15.4383 414.279 15.5732V15.2111C414.279 14.8881 414.208 14.6113 414.066 14.3806C413.924 14.1499 413.728 13.9742 413.48 13.8535C413.235 13.7293 412.956 13.6672 412.644 13.6672C412.374 13.6672 412.105 13.7168 411.835 13.8162C411.565 13.9121 411.313 14.0558 411.079 14.2475L410.845 13.6831C411.136 13.4808 411.446 13.3282 411.776 13.2253C412.11 13.1188 412.442 13.0655 412.772 13.0655C413.216 13.0655 413.597 13.156 413.917 13.3371C414.24 13.5181 414.49 13.7754 414.667 14.1091C414.845 14.4391 414.933 14.8331 414.933 15.291V18.4961ZM412.591 18.001C412.9 18.001 413.178 17.9353 413.427 17.804C413.679 17.6691 413.881 17.481 414.034 17.2396C414.186 16.9947 414.268 16.7143 414.279 16.3984V16.2174C414.059 16.0506 413.819 15.9246 413.56 15.8394C413.304 15.7506 413.038 15.7063 412.761 15.7063C412.31 15.7063 411.936 15.8145 411.638 16.031C411.343 16.2476 411.196 16.5262 411.196 16.8669C411.196 17.0799 411.256 17.2733 411.377 17.4473C411.501 17.6176 411.668 17.7525 411.877 17.8519C412.09 17.9513 412.328 18.001 412.591 18.001ZM419.703 18.4588C419.199 18.4588 418.746 18.3417 418.345 18.1074C417.944 17.8696 417.627 17.5484 417.392 17.1438C417.162 16.7356 417.046 16.276 417.046 15.7648C417.046 15.2502 417.162 14.7905 417.392 14.3859C417.627 13.9777 417.944 13.6565 418.345 13.4223C418.746 13.1844 419.201 13.0655 419.708 13.0655C420.17 13.0655 420.585 13.1667 420.954 13.369C421.327 13.5713 421.625 13.8429 421.849 14.1836L421.88 13.172H422.466V18.363C422.466 18.9628 422.353 19.4793 422.125 19.9123C421.898 20.3453 421.573 20.679 421.151 20.9132C420.729 21.1475 420.225 21.2646 419.639 21.2646C418.805 21.2646 418.09 20.9824 417.493 20.4181L417.802 19.8963C418.292 20.4145 418.901 20.6736 419.628 20.6736C420.079 20.6736 420.466 20.5778 420.789 20.3861C421.116 20.198 421.368 19.9318 421.545 19.5875C421.723 19.2432 421.811 18.8333 421.811 18.3577V17.3834C421.584 17.7135 421.288 17.9761 420.922 18.1713C420.557 18.363 420.15 18.4588 419.703 18.4588ZM419.756 17.8785C420.132 17.8785 420.473 17.7933 420.778 17.6229C421.084 17.4526 421.329 17.2201 421.513 16.9255C421.701 16.6273 421.801 16.2902 421.811 15.9139V15.6158C421.801 15.236 421.701 14.8988 421.513 14.6042C421.329 14.306 421.084 14.0718 420.778 13.9014C420.477 13.731 420.138 13.6459 419.762 13.6459C419.371 13.6459 419.02 13.7399 418.707 13.928C418.399 14.1126 418.154 14.3646 417.973 14.6841C417.795 15 417.706 15.3602 417.706 15.7648C417.706 16.1659 417.795 16.5262 417.973 16.8456C418.154 17.1651 418.399 17.4171 418.707 17.6016C419.016 17.7862 419.366 17.8785 419.756 17.8785ZM429.663 17.8306C429.01 18.3452 428.286 18.6026 427.491 18.6026C426.941 18.6026 426.448 18.4801 426.011 18.2352C425.578 17.9868 425.237 17.6496 424.989 17.2236C424.74 16.7977 424.616 16.315 424.616 15.7755C424.616 15.2537 424.732 14.7888 424.962 14.3806C425.197 13.9724 425.516 13.6512 425.921 13.4169C426.325 13.1827 426.785 13.0655 427.3 13.0655C427.821 13.0655 428.281 13.1898 428.678 13.4382C429.076 13.6831 429.387 14.0239 429.61 14.4604C429.834 14.8935 429.946 15.3957 429.946 15.9672V16.1322H425.324C425.367 16.5049 425.489 16.8314 425.692 17.1118C425.898 17.3922 426.16 17.6105 426.48 17.7667C426.799 17.9229 427.158 18.001 427.555 18.001C428.208 18.001 428.808 17.7844 429.355 17.3514L429.663 17.8306ZM425.303 15.5679H429.333C429.301 15.1881 429.197 14.8562 429.019 14.5723C428.842 14.2883 428.608 14.0665 428.316 13.9067C428.029 13.747 427.701 13.6672 427.332 13.6672C426.959 13.6672 426.623 13.747 426.325 13.9067C426.031 14.0665 425.793 14.2901 425.612 14.5776C425.434 14.8615 425.331 15.1916 425.303 15.5679ZM440.502 18.4961H439.848V15.6051C439.848 14.9911 439.709 14.5137 439.432 14.1729C439.155 13.8287 438.769 13.6565 438.272 13.6565C437.771 13.6565 437.377 13.8304 437.09 14.1783C436.802 14.5226 436.658 14.9982 436.658 15.6051V18.4961H436.004V15.6051C436.004 14.9911 435.865 14.5137 435.588 14.1729C435.311 13.8287 434.923 13.6565 434.422 13.6565C433.922 13.6565 433.528 13.8304 433.24 14.1783C432.953 14.5226 432.809 14.9982 432.809 15.6051V18.4961H432.154V13.172H432.697L432.724 14.2209C432.894 13.8411 433.136 13.5536 433.448 13.3584C433.764 13.1631 434.14 13.0655 434.577 13.0655C435.049 13.0655 435.448 13.1791 435.775 13.4063C436.101 13.6334 436.335 13.9582 436.477 14.3806C436.637 13.9511 436.88 13.6246 437.207 13.401C437.537 13.1773 437.938 13.0655 438.41 13.0655C439.07 13.0655 439.583 13.2767 439.949 13.6991C440.318 14.1215 440.502 14.7125 440.502 15.472V18.4961ZM447.668 17.8306C447.015 18.3452 446.291 18.6026 445.496 18.6026C444.945 18.6026 444.452 18.4801 444.015 18.2352C443.582 17.9868 443.242 17.6496 442.993 17.2236C442.745 16.7977 442.621 16.315 442.621 15.7755C442.621 15.2537 442.736 14.7888 442.967 14.3806C443.201 13.9724 443.52 13.6512 443.925 13.4169C444.33 13.1827 444.789 13.0655 445.304 13.0655C445.826 13.0655 446.285 13.1898 446.683 13.4382C447.08 13.6831 447.391 14.0239 447.615 14.4604C447.838 14.8935 447.95 15.3957 447.95 15.9672V16.1322H443.329C443.371 16.5049 443.494 16.8314 443.696 17.1118C443.902 17.3922 444.165 17.6105 444.484 17.7667C444.803 17.9229 445.162 18.001 445.559 18.001C446.213 18.001 446.812 17.7844 447.359 17.3514L447.668 17.8306ZM443.307 15.5679H447.338C447.306 15.1881 447.201 14.8562 447.024 14.5723C446.846 14.2883 446.612 14.0665 446.321 13.9067C446.033 13.747 445.705 13.6672 445.336 13.6672C444.963 13.6672 444.628 13.747 444.33 13.9067C444.035 14.0665 443.797 14.2901 443.616 14.5776C443.439 14.8615 443.336 15.1916 443.307 15.5679ZM455.009 18.4961H454.354V15.5146C454.354 14.9467 454.198 14.4977 453.885 14.1676C453.573 13.834 453.152 13.6672 452.624 13.6672C452.077 13.6672 451.639 13.8429 451.309 14.1942C450.978 14.5421 450.813 15.0071 450.813 15.5891V18.4961H450.159V13.172H450.739L450.76 14.1729C450.945 13.8145 451.204 13.5412 451.538 13.353C451.871 13.1614 452.269 13.0655 452.73 13.0655C453.44 13.0655 453.997 13.2785 454.402 13.7044C454.806 14.1304 455.009 14.7196 455.009 15.472V18.4961ZM460.327 18.3736C460.004 18.5263 459.684 18.6026 459.368 18.6026C459.07 18.6026 458.809 18.5369 458.586 18.4056C458.366 18.2743 458.194 18.0897 458.069 17.8519C457.945 17.6141 457.883 17.3372 457.883 17.0213V13.763H456.951V13.172H457.91V11.841H458.538V13.172H460.167V13.763H458.538V16.9042C458.538 17.2378 458.627 17.5058 458.804 17.7081C458.981 17.9104 459.216 18.0116 459.507 18.0116C459.738 18.0116 459.97 17.9442 460.204 17.8093L460.327 18.3736Z" fill="black"/>
<g clip-path="url(#clip1_3463_111)">
<path d="M495.239 18.4961V10.51H497.598C498.244 10.51 498.796 10.6094 499.253 10.8081C499.711 11.0033 500.061 11.2837 500.302 11.6493C500.544 12.0149 500.664 12.4533 500.664 12.9644C500.664 13.4719 500.544 13.9103 500.302 14.2794C500.061 14.6486 499.711 14.9325 499.253 15.1313C498.796 15.33 498.244 15.4294 497.598 15.4294H495.942V18.4961H495.239ZM495.942 14.8012H497.544C498.311 14.8012 498.902 14.6379 499.317 14.3114C499.736 13.9848 499.946 13.5358 499.946 12.9644C499.946 12.3929 499.736 11.9457 499.317 11.6227C498.902 11.2997 498.311 11.1382 497.544 11.1382H495.942V14.8012ZM503.666 18.4961H503.011V13.172H503.592L503.618 14.3486C503.796 13.9369 504.058 13.621 504.406 13.401C504.758 13.1773 505.168 13.0655 505.636 13.0655C505.721 13.0655 505.808 13.0709 505.897 13.0815C505.989 13.0886 506.08 13.101 506.169 13.1188L506.089 13.7098C505.915 13.6743 505.741 13.6565 505.567 13.6565C505.198 13.6565 504.869 13.747 504.582 13.928C504.294 14.1091 504.069 14.3593 503.906 14.6787C503.746 14.9946 503.666 15.3602 503.666 15.7755V18.4961ZM510.4 18.6026C509.875 18.6026 509.403 18.4819 508.984 18.2405C508.565 17.9992 508.235 17.6709 507.994 17.2556C507.752 16.8368 507.632 16.3629 507.632 15.8341C507.632 15.3087 507.752 14.8385 507.994 14.4232C508.235 14.0043 508.565 13.6743 508.984 13.4329C509.403 13.188 509.875 13.0655 510.4 13.0655C510.922 13.0655 511.391 13.188 511.806 13.4329C512.221 13.6743 512.549 14.0043 512.791 14.4232C513.032 14.8385 513.153 15.3087 513.153 15.8341C513.153 16.3594 513.032 16.8314 512.791 17.2503C512.549 17.6691 512.221 17.9992 511.806 18.2405C511.391 18.4819 510.922 18.6026 510.4 18.6026ZM510.395 18.0116C510.793 18.0116 511.147 17.9158 511.46 17.7241C511.776 17.5324 512.024 17.2733 512.205 16.9468C512.39 16.6167 512.482 16.244 512.482 15.8287C512.482 15.4206 512.39 15.0532 512.205 14.7266C512.024 14.3966 511.776 14.1357 511.46 13.944C511.147 13.7523 510.793 13.6565 510.395 13.6565C509.997 13.6565 509.641 13.7523 509.325 13.944C509.009 14.1357 508.759 14.3966 508.574 14.7266C508.393 15.0532 508.303 15.4206 508.303 15.8287C508.303 16.244 508.393 16.6167 508.574 16.9468C508.759 17.2733 509.009 17.5324 509.325 17.7241C509.641 17.9158 509.997 18.0116 510.395 18.0116ZM520.489 18.4961H519.898L519.866 17.4739C519.639 17.8253 519.333 18.1021 518.95 18.3044C518.57 18.5032 518.148 18.6026 517.683 18.6026C517.158 18.6026 516.687 18.4819 516.272 18.2405C515.86 17.9992 515.534 17.6691 515.292 17.2503C515.054 16.8314 514.936 16.3594 514.936 15.8341C514.936 15.3052 515.054 14.8331 515.292 14.4179C515.534 13.999 515.86 13.6689 516.272 13.4276C516.687 13.1862 517.158 13.0655 517.683 13.0655C518.137 13.0655 518.552 13.1631 518.929 13.3584C519.305 13.55 519.607 13.8162 519.834 14.157V10.51H520.489V18.4961ZM517.725 18.0116C518.112 18.0116 518.465 17.9229 518.785 17.7454C519.104 17.5644 519.358 17.3195 519.546 17.0107C519.738 16.6983 519.834 16.3452 519.834 15.9512V15.7116C519.834 15.3212 519.74 14.9716 519.552 14.6628C519.363 14.3504 519.11 14.1055 518.79 13.928C518.474 13.747 518.119 13.6565 517.725 13.6565C517.324 13.6565 516.962 13.7523 516.639 13.944C516.32 14.1321 516.068 14.3912 515.883 14.7213C515.699 15.0479 515.606 15.417 515.606 15.8287C515.606 16.244 515.699 16.6167 515.883 16.9468C516.068 17.2733 516.32 17.5324 516.639 17.7241C516.959 17.9158 517.321 18.0116 517.725 18.0116ZM527.835 18.4961H527.255L527.233 17.4952C527.045 17.8537 526.786 18.1287 526.456 18.3204C526.129 18.5085 525.737 18.6026 525.279 18.6026C524.577 18.6026 524.023 18.3896 523.618 17.9637C523.217 17.5342 523.017 16.945 523.017 16.1961V13.172H523.672V16.1535C523.672 16.7214 523.826 17.1722 524.135 17.5058C524.444 17.8359 524.861 18.001 525.386 18.001C525.929 18.001 526.364 17.827 526.69 17.4792C527.017 17.1278 527.18 16.6611 527.18 16.079V13.172H527.835V18.4961ZM534.83 17.756C534.574 18.0258 534.273 18.2352 533.925 18.3843C533.581 18.5298 533.208 18.6026 532.807 18.6026C532.281 18.6026 531.809 18.4819 531.391 18.2405C530.975 17.9992 530.647 17.6691 530.406 17.2503C530.164 16.8314 530.044 16.3594 530.044 15.8341C530.044 15.3052 530.164 14.8331 530.406 14.4179C530.647 13.999 530.975 13.6689 531.391 13.4276C531.809 13.1862 532.281 13.0655 532.807 13.0655C533.204 13.0655 533.577 13.1383 533.925 13.2838C534.273 13.4293 534.573 13.637 534.825 13.9067L534.425 14.3273C534.227 14.1179 533.989 13.9564 533.712 13.8429C533.439 13.7257 533.146 13.6672 532.833 13.6672C532.425 13.6672 532.061 13.7612 531.742 13.9493C531.426 14.1339 531.176 14.3895 530.991 14.716C530.81 15.0425 530.72 15.4135 530.72 15.8287C530.72 16.2476 530.81 16.622 530.991 16.9521C531.176 17.2787 531.426 17.536 531.742 17.7241C532.061 17.9087 532.425 18.001 532.833 18.001C533.146 18.001 533.44 17.9442 533.717 17.8306C533.994 17.7135 534.23 17.5502 534.425 17.3408L534.83 17.756ZM539.892 18.3736C539.569 18.5263 539.25 18.6026 538.934 18.6026C538.636 18.6026 538.375 18.5369 538.151 18.4056C537.931 18.2743 537.759 18.0897 537.635 17.8519C537.511 17.6141 537.449 17.3372 537.449 17.0213V13.763H536.517V13.172H537.475V11.841H538.103V13.172H539.733V13.763H538.103V16.9042C538.103 17.2378 538.192 17.5058 538.37 17.7081C538.547 17.9104 538.781 18.0116 539.072 18.0116C539.303 18.0116 539.536 17.9442 539.77 17.8093L539.892 18.3736ZM549.378 18.6558C548.778 18.6558 548.226 18.5529 547.722 18.347C547.218 18.1412 546.78 17.8519 546.407 17.4792C546.038 17.103 545.751 16.6628 545.545 16.1588C545.342 15.6513 545.241 15.0993 545.241 14.503C545.241 13.9032 545.342 13.3513 545.545 12.8473C545.751 12.3397 546.038 11.8996 546.407 11.5269C546.78 11.1542 547.218 10.8649 547.722 10.6591C548.226 10.4532 548.778 10.3503 549.378 10.3503C549.974 10.3503 550.523 10.4532 551.023 10.6591C551.527 10.8649 551.964 11.1542 552.333 11.5269C552.706 11.8996 552.993 12.3397 553.195 12.8473C553.401 13.3513 553.504 13.9032 553.504 14.503C553.504 15.0993 553.401 15.6513 553.195 16.1588C552.993 16.6628 552.706 17.103 552.333 17.4792C551.964 17.8519 551.527 18.1412 551.023 18.347C550.523 18.5529 549.974 18.6558 549.378 18.6558ZM549.373 18.0276C549.866 18.0276 550.32 17.9406 550.736 17.7667C551.151 17.5892 551.511 17.3425 551.817 17.0266C552.125 16.7072 552.363 16.3327 552.53 15.9033C552.7 15.4738 552.786 15.0071 552.786 14.503C552.786 13.999 552.7 13.5323 552.53 13.1028C552.363 12.6733 552.125 12.3006 551.817 11.9848C551.511 11.6653 551.151 11.4186 550.736 11.2447C550.32 11.0672 549.866 10.9785 549.373 10.9785C548.883 10.9785 548.43 11.0672 548.015 11.2447C547.6 11.4186 547.238 11.6653 546.929 11.9848C546.624 12.3006 546.386 12.6733 546.216 13.1028C546.045 13.5287 545.96 13.9955 545.96 14.503C545.96 15.0106 546.045 15.4791 546.216 15.9086C546.386 16.3345 546.624 16.7072 546.929 17.0266C547.238 17.3425 547.6 17.5892 548.015 17.7667C548.43 17.9406 548.883 18.0276 549.373 18.0276ZM560.478 13.172L558.215 18.4961H557.576L555.319 13.172H556.027L557.901 17.788L559.78 13.172H560.478ZM567.148 17.8306C566.495 18.3452 565.771 18.6026 564.976 18.6026C564.426 18.6026 563.932 18.4801 563.496 18.2352C563.063 17.9868 562.722 17.6496 562.474 17.2236C562.225 16.7977 562.101 16.315 562.101 15.7755C562.101 15.2537 562.216 14.7888 562.447 14.3806C562.681 13.9724 563.001 13.6512 563.405 13.4169C563.81 13.1827 564.27 13.0655 564.784 13.0655C565.306 13.0655 565.766 13.1898 566.163 13.4382C566.561 13.6831 566.871 14.0239 567.095 14.4604C567.319 14.8935 567.43 15.3957 567.43 15.9672V16.1322H562.809C562.852 16.5049 562.974 16.8314 563.176 17.1118C563.382 17.3922 563.645 17.6105 563.964 17.7667C564.284 17.9229 564.642 18.001 565.04 18.001C565.693 18.001 566.293 17.7844 566.839 17.3514L567.148 17.8306ZM562.788 15.5679H566.818C566.786 15.1881 566.681 14.8562 566.504 14.5723C566.326 14.2883 566.092 14.0665 565.801 13.9067C565.514 13.747 565.185 13.6672 564.816 13.6672C564.444 13.6672 564.108 13.747 563.81 13.9067C563.515 14.0665 563.278 14.2901 563.097 14.5776C562.919 14.8615 562.816 15.1916 562.788 15.5679ZM570.294 18.4961H569.639V13.172H570.219L570.246 14.3486C570.423 13.9369 570.686 13.621 571.034 13.401C571.385 13.1773 571.795 13.0655 572.264 13.0655C572.349 13.0655 572.436 13.0709 572.525 13.0815C572.617 13.0886 572.707 13.101 572.796 13.1188L572.716 13.7098C572.542 13.6743 572.368 13.6565 572.195 13.6565C571.825 13.6565 571.497 13.747 571.21 13.928C570.922 14.1091 570.697 14.3593 570.533 14.6787C570.374 14.9946 570.294 15.3602 570.294 15.7755V18.4961ZM574.313 18.0329L574.504 17.426C574.636 17.5466 574.781 17.6496 574.941 17.7348C575.104 17.8199 575.273 17.8856 575.447 17.9317C575.624 17.9779 575.803 18.001 575.984 18.001C576.346 18.001 576.641 17.9122 576.868 17.7348C577.095 17.5573 577.209 17.3266 577.209 17.0426C577.209 16.8403 577.152 16.6753 577.039 16.5475C576.925 16.4162 576.776 16.3043 576.591 16.2121C576.407 16.1198 576.212 16.0328 576.006 15.9512C575.768 15.8589 575.535 15.756 575.308 15.6424C575.081 15.5253 574.893 15.3744 574.744 15.1898C574.598 15.0053 574.526 14.7621 574.526 14.4604C574.526 14.1765 574.595 13.9316 574.733 13.7257C574.875 13.5163 575.072 13.3548 575.324 13.2412C575.58 13.1241 575.874 13.0655 576.208 13.0655C576.687 13.0655 577.159 13.1827 577.624 13.4169L577.422 14.0079C577.312 13.9405 577.188 13.8819 577.049 13.8322C576.911 13.779 576.769 13.7381 576.623 13.7098C576.478 13.6814 576.339 13.6672 576.208 13.6672C575.906 13.6672 575.663 13.7399 575.479 13.8854C575.294 14.0274 575.202 14.2155 575.202 14.4498C575.202 14.6024 575.243 14.7355 575.324 14.8491C575.409 14.9591 575.537 15.0621 575.708 15.1579C575.878 15.2537 576.091 15.3549 576.346 15.4614C576.591 15.5608 576.831 15.6743 577.065 15.8021C577.299 15.9263 577.493 16.0861 577.646 16.2813C577.802 16.4765 577.88 16.7303 577.88 17.0426C577.88 17.3479 577.8 17.6194 577.64 17.8572C577.484 18.0915 577.266 18.2743 576.985 18.4056C576.708 18.5369 576.385 18.6026 576.016 18.6026C575.402 18.6026 574.834 18.4127 574.313 18.0329ZM580.509 11.3033C580.385 11.3033 580.28 11.2607 580.195 11.1755C580.113 11.0868 580.072 10.9803 580.072 10.856C580.072 10.7354 580.113 10.6324 580.195 10.5473C580.28 10.4621 580.385 10.4195 580.509 10.4195C580.637 10.4195 580.743 10.4621 580.828 10.5473C580.917 10.6324 580.962 10.7354 580.962 10.856C580.962 10.9803 580.917 11.0868 580.828 11.1755C580.743 11.2607 580.637 11.3033 580.509 11.3033ZM580.839 18.4961H580.184V13.172H580.839V18.4961ZM585.752 18.4588C585.248 18.4588 584.796 18.3417 584.395 18.1074C583.994 17.8696 583.676 17.5484 583.442 17.1438C583.211 16.7356 583.096 16.276 583.096 15.7648C583.096 15.2502 583.211 14.7905 583.442 14.3859C583.676 13.9777 583.994 13.6565 584.395 13.4223C584.796 13.1844 585.25 13.0655 585.758 13.0655C586.219 13.0655 586.634 13.1667 587.004 13.369C587.376 13.5713 587.674 13.8429 587.898 14.1836L587.93 13.172H588.516V18.363C588.516 18.9628 588.402 19.4793 588.175 19.9123C587.948 20.3453 587.623 20.679 587.201 20.9132C586.778 21.1475 586.274 21.2646 585.688 21.2646C584.854 21.2646 584.139 20.9824 583.543 20.4181L583.852 19.8963C584.341 20.4145 584.95 20.6736 585.678 20.6736C586.129 20.6736 586.515 20.5778 586.838 20.3861C587.165 20.198 587.417 19.9318 587.595 19.5875C587.772 19.2432 587.861 18.8333 587.861 18.3577V17.3834C587.634 17.7135 587.337 17.9761 586.972 18.1713C586.606 18.363 586.2 18.4588 585.752 18.4588ZM585.806 17.8785C586.182 17.8785 586.523 17.7933 586.828 17.6229C587.133 17.4526 587.378 17.2201 587.563 16.9255C587.751 16.6273 587.85 16.2902 587.861 15.9139V15.6158C587.85 15.236 587.751 14.8988 587.563 14.6042C587.378 14.306 587.133 14.0718 586.828 13.9014C586.526 13.731 586.187 13.6459 585.811 13.6459C585.421 13.6459 585.069 13.7399 584.757 13.928C584.448 14.1126 584.203 14.3646 584.022 14.6841C583.845 15 583.756 15.3602 583.756 15.7648C583.756 16.1659 583.845 16.5262 584.022 16.8456C584.203 17.1651 584.448 17.4171 584.757 17.6016C585.066 17.7862 585.415 17.8785 585.806 17.8785ZM591.092 18.4961V10.51H591.746V14.125C592.13 13.4187 592.779 13.0655 593.695 13.0655C594.401 13.0655 594.952 13.2767 595.346 13.6991C595.743 14.1215 595.942 14.7125 595.942 15.472V18.4961H595.287V15.6051C595.287 14.9911 595.133 14.5137 594.824 14.1729C594.515 13.8287 594.085 13.6565 593.535 13.6565C592.982 13.6565 592.545 13.8304 592.226 14.1783C591.906 14.5261 591.746 15.0017 591.746 15.6051V18.4961H591.092ZM601.206 18.3736C600.883 18.5263 600.564 18.6026 600.248 18.6026C599.95 18.6026 599.689 18.5369 599.465 18.4056C599.245 18.2743 599.073 18.0897 598.949 17.8519C598.825 17.6141 598.763 17.3372 598.763 17.0213V13.763H597.831V13.172H598.789V11.841H599.418V13.172H601.047V13.763H599.418V16.9042C599.418 17.2378 599.506 17.5058 599.684 17.7081C599.861 17.9104 600.096 18.0116 600.387 18.0116C600.617 18.0116 600.85 17.9442 601.084 17.8093L601.206 18.3736Z" fill="black"/>
</g>
<path d="M618.896 17.0642L619.242 16.5212C619.466 16.7058 619.693 16.8602 619.924 16.9844C620.158 17.1086 620.398 17.2009 620.642 17.2612C620.887 17.3216 621.136 17.3517 621.388 17.3517C621.778 17.3517 622.121 17.2843 622.415 17.1494C622.71 17.011 622.941 16.8211 623.108 16.5798C623.274 16.3384 623.358 16.0598 623.358 15.7439C623.358 15.4067 623.265 15.1298 623.081 14.9133C622.9 14.6933 622.666 14.5087 622.378 14.3596C622.091 14.207 621.785 14.0632 621.462 13.9284C621.203 13.8183 620.948 13.703 620.696 13.5823C620.444 13.4581 620.215 13.3143 620.009 13.1511C619.803 12.9878 619.638 12.7926 619.514 12.5654C619.393 12.3382 619.333 12.0632 619.333 11.7402C619.333 11.332 619.436 10.9735 619.642 10.6647C619.847 10.3524 620.131 10.1092 620.493 9.93531C620.859 9.76139 621.281 9.67443 621.761 9.67443C622.08 9.67443 622.398 9.71525 622.714 9.79689C623.033 9.87852 623.338 9.9992 623.629 10.1589L623.336 10.7392C623.088 10.5973 622.829 10.489 622.559 10.4145C622.293 10.3364 622.028 10.2973 621.766 10.2973C621.429 10.2973 621.131 10.3559 620.871 10.473C620.616 10.5902 620.415 10.7534 620.27 10.9629C620.124 11.1723 620.051 11.4154 620.051 11.6923C620.051 11.994 620.137 12.246 620.307 12.4483C620.481 12.6506 620.703 12.8245 620.973 12.97C621.246 13.112 621.533 13.2504 621.835 13.3853C622.108 13.5024 622.376 13.6267 622.639 13.758C622.905 13.8893 623.147 14.0437 623.363 14.2212C623.58 14.3951 623.752 14.6045 623.88 14.8494C624.011 15.0943 624.076 15.3889 624.076 15.7332C624.076 16.1769 623.965 16.5673 623.741 16.9045C623.517 17.2417 623.207 17.5044 622.809 17.6925C622.412 17.8806 621.949 17.9747 621.42 17.9747C620.958 17.9747 620.515 17.8984 620.089 17.7457C619.666 17.5931 619.269 17.3659 618.896 17.0642ZM630.592 17.8149H630.033L629.98 16.9258C629.803 17.2311 629.554 17.4742 629.235 17.6552C628.915 17.8327 628.551 17.9214 628.143 17.9214C627.767 17.9214 627.43 17.8487 627.132 17.7031C626.837 17.5541 626.605 17.3517 626.434 17.0962C626.264 16.8371 626.179 16.5443 626.179 16.2177C626.179 15.877 626.271 15.5753 626.456 15.3126C626.64 15.05 626.894 14.8441 627.217 14.695C627.54 14.5424 627.907 14.4661 628.319 14.4661C628.606 14.4661 628.892 14.5034 629.176 14.5779C629.46 14.6524 629.714 14.7571 629.937 14.892V14.53C629.937 14.207 629.866 13.9301 629.724 13.6994C629.583 13.4687 629.387 13.293 629.139 13.1723C628.894 13.0481 628.615 12.986 628.303 12.986C628.033 12.986 627.763 13.0357 627.494 13.1351C627.224 13.2309 626.972 13.3747 626.738 13.5663L626.503 13.002C626.794 12.7997 627.105 12.647 627.435 12.5441C627.769 12.4376 628.101 12.3844 628.431 12.3844C628.874 12.3844 629.256 12.4749 629.575 12.6559C629.898 12.8369 630.149 13.0943 630.326 13.4279C630.504 13.758 630.592 14.152 630.592 14.6098V17.8149ZM628.25 17.3198C628.559 17.3198 628.837 17.2541 629.086 17.1228C629.338 16.9879 629.54 16.7998 629.693 16.5585C629.845 16.3136 629.927 16.0332 629.937 15.7173V15.5362C629.717 15.3694 629.478 15.2434 629.219 15.1582C628.963 15.0695 628.697 15.0251 628.42 15.0251C627.969 15.0251 627.595 15.1334 627.297 15.3499C627.002 15.5664 626.855 15.845 626.855 16.1858C626.855 16.3987 626.915 16.5922 627.036 16.7661C627.16 16.9365 627.327 17.0713 627.536 17.1707C627.749 17.2701 627.987 17.3198 628.25 17.3198ZM633.818 17.8149H633.131V9.61587H633.818V17.8149ZM641.074 17.1494C640.421 17.6641 639.697 17.9214 638.901 17.9214C638.351 17.9214 637.858 17.799 637.421 17.5541C636.988 17.3056 636.648 16.9684 636.399 16.5425C636.151 16.1166 636.026 15.6338 636.026 15.0943C636.026 14.5726 636.142 14.1076 636.373 13.6994C636.607 13.2913 636.926 12.97 637.331 12.7358C637.736 12.5015 638.195 12.3844 638.71 12.3844C639.232 12.3844 639.691 12.5086 640.089 12.7571C640.486 13.002 640.797 13.3427 641.02 13.7793C641.244 14.2123 641.356 14.7146 641.356 15.286V15.4511H636.735C636.777 15.8237 636.9 16.1503 637.102 16.4307C637.308 16.7111 637.57 16.9294 637.89 17.0855C638.209 17.2417 638.568 17.3198 638.965 17.3198C639.618 17.3198 640.218 17.1033 640.765 16.6703L641.074 17.1494ZM636.713 14.8867H640.744C640.712 14.5069 640.607 14.175 640.429 13.8911C640.252 13.6071 640.018 13.3853 639.727 13.2256C639.439 13.0659 639.111 12.986 638.742 12.986C638.369 12.986 638.034 13.0659 637.736 13.2256C637.441 13.3853 637.203 13.6089 637.022 13.8964C636.845 14.1804 636.742 14.5105 636.713 14.8867ZM643.192 17.3517L643.384 16.7448C643.515 16.8655 643.66 16.9684 643.82 17.0536C643.983 17.1388 644.152 17.2044 644.326 17.2506C644.503 17.2967 644.683 17.3198 644.864 17.3198C645.226 17.3198 645.52 17.2311 645.747 17.0536C645.975 16.8761 646.088 16.6454 646.088 16.3615C646.088 16.1592 646.031 15.9941 645.918 15.8663C645.804 15.735 645.655 15.6232 645.471 15.5309C645.286 15.4386 645.091 15.3517 644.885 15.27C644.647 15.1777 644.415 15.0748 644.187 14.9612C643.96 14.8441 643.772 14.6933 643.623 14.5087C643.478 14.3241 643.405 14.081 643.405 13.7793C643.405 13.4953 643.474 13.2504 643.612 13.0446C643.754 12.8352 643.951 12.6737 644.203 12.5601C644.459 12.443 644.754 12.3844 645.087 12.3844C645.566 12.3844 646.038 12.5015 646.503 12.7358L646.301 13.3267C646.191 13.2593 646.067 13.2007 645.928 13.1511C645.79 13.0978 645.648 13.057 645.502 13.0286C645.357 13.0002 645.219 12.986 645.087 12.986C644.786 12.986 644.542 13.0588 644.358 13.2043C644.173 13.3463 644.081 13.5344 644.081 13.7686C644.081 13.9213 644.122 14.0544 644.203 14.168C644.289 14.278 644.416 14.3809 644.587 14.4767C644.757 14.5726 644.97 14.6737 645.226 14.7802C645.471 14.8796 645.71 14.9932 645.944 15.121C646.179 15.2452 646.372 15.4049 646.525 15.6001C646.681 15.7953 646.759 16.0491 646.759 16.3615C646.759 16.6667 646.679 16.9382 646.519 17.1761C646.363 17.4103 646.145 17.5931 645.865 17.7244C645.588 17.8558 645.265 17.9214 644.896 17.9214C644.281 17.9214 643.714 17.7315 643.192 17.3517Z" fill="black"/>
</g>
<rect x="0.627362" y="0.340741" width="870.933" height="34.0741" stroke="#DFF9E2" stroke-width="0.681482" shape-rendering="crispEdges"/>
</g>
<defs>
<filter id="filter0_d_3463_111" x="-1.75782" y="0" width="875.704" height="38.8443" filterUnits="userSpaceOnUse" color-interpolation-filters="sRGB">
<feFlood flood-opacity="0" result="BackgroundImageFix"/>
<feColorMatrix in="SourceAlpha" type="matrix" values="0 0 0 0 0 0 0 0 0 0 0 0 0 0 0 0 0 0 127 0" result="hardAlpha"/>
<feOffset dy="2.04444"/>
<feGaussianBlur stdDeviation="1.02222"/>
<feComposite in2="hardAlpha" operator="out"/>
<feColorMatrix type="matrix" values="0 0 0 0 0 0 0 0 0 0 0 0 0 0 0 0 0 0 0.5 0"/>
<feBlend mode="normal" in2="BackgroundImageFix" result="effect1_dropShadow_3463_111"/>
<feBlend mode="normal" in="SourceGraphic" in2="effect1_dropShadow_3463_111" result="shape"/>
</filter>
<clipPath id="clip0_3463_111">
<rect x="0.286621" width="871.615" height="34.7556" fill="white"/>
</clipPath>
<clipPath id="clip1_3463_111">
<rect width="109.719" height="19.763" fill="white" transform="translate(492.316 7.49609)"/>
</clipPath>
</defs>
</svg>
