<svg width="398" height="168" viewBox="0 0 398 168" fill="none" xmlns="http://www.w3.org/2000/svg">
<g filter="url(#filter0_d_3463_245)">
<g clip-path="url(#clip0_3463_245)">
<path d="M32.77 31.7778V19.7987H36.5953C37.5856 19.7987 38.4348 19.9557 39.1429 20.2698C39.8563 20.5786 40.4021 21.0232 40.7801 21.6035C41.1581 22.1785 41.3471 22.868 41.3471 23.6719C41.3471 24.4705 41.1581 25.1627 40.7801 25.7483C40.4021 26.3286 39.8563 26.7759 39.1429 27.09C38.4348 27.4041 37.5883 27.5612 36.6033 27.5612H34.5269V31.7778H32.77ZM34.5269 26.0119H36.4356C37.4312 26.0119 38.1979 25.8069 38.7356 25.3969C39.2787 24.9817 39.5502 24.4067 39.5502 23.6719C39.5502 22.9372 39.2787 22.3675 38.7356 21.9629C38.1979 21.5529 37.4312 21.348 36.4356 21.348H34.5269V26.0119ZM46.1455 31.7778H44.5083V23.7917H45.9378L46.0017 25.3091C46.2786 24.782 46.6592 24.372 47.1437 24.0792C47.6335 23.7811 48.1952 23.632 48.8288 23.632C48.9832 23.632 49.1376 23.6426 49.292 23.6639C49.4517 23.6799 49.6114 23.7065 49.7711 23.7438L49.5635 25.2212C49.2547 25.1414 48.9512 25.1014 48.6531 25.1014C48.158 25.1014 47.7214 25.2212 47.3434 25.4608C46.9654 25.6951 46.6699 26.0198 46.4569 26.4351C46.2493 26.8504 46.1455 27.3296 46.1455 27.8726V31.7778ZM55.9591 31.9376C55.1605 31.9376 54.4417 31.7565 53.8029 31.3945C53.164 31.0325 52.6608 30.54 52.2935 29.9171C51.9261 29.2888 51.7424 28.5781 51.7424 27.7848C51.7424 26.9968 51.9261 26.2914 52.2935 25.6685C52.6608 25.0402 53.164 24.5451 53.8029 24.183C54.4417 23.8157 55.1605 23.632 55.9591 23.632C56.763 23.632 57.4818 23.8157 58.1154 24.183C58.7489 24.5451 59.2467 25.0402 59.6088 25.6685C59.9761 26.2914 60.1598 26.9968 60.1598 27.7848C60.1598 28.5781 59.9761 29.2888 59.6088 29.9171C59.2467 30.54 58.7489 31.0325 58.1154 31.3945C57.4818 31.7565 56.763 31.9376 55.9591 31.9376ZM55.9511 30.4681C56.4356 30.4681 56.8669 30.351 57.2449 30.1167C57.6282 29.8771 57.929 29.5577 58.1473 29.1584C58.3709 28.7538 58.4827 28.2932 58.4827 27.7768C58.4827 27.271 58.3709 26.8185 58.1473 26.4192C57.929 26.0145 57.6282 25.6951 57.2449 25.4608C56.8669 25.2212 56.4356 25.1014 55.9511 25.1014C55.472 25.1014 55.0407 25.2212 54.6574 25.4608C54.274 25.6951 53.9706 26.0145 53.747 26.4192C53.5287 26.8185 53.4195 27.271 53.4195 27.7768C53.4195 28.2932 53.5287 28.7538 53.747 29.1584C53.9706 29.5577 54.274 29.8771 54.6574 30.1167C55.0407 30.351 55.472 30.4681 55.9511 30.4681ZM71.1155 31.7778H69.67L69.5821 30.6358C69.2201 31.0404 68.7835 31.3599 68.2724 31.5942C67.7666 31.8231 67.2103 31.9376 66.6033 31.9376C65.8367 31.9376 65.1498 31.7565 64.5429 31.3945C63.936 31.0325 63.4568 30.5373 63.1054 29.9091C62.7593 29.2808 62.5863 28.5727 62.5863 27.7848C62.5863 26.9915 62.7593 26.2834 63.1054 25.6605C63.4568 25.0322 63.936 24.5371 64.5429 24.1751C65.1498 23.813 65.8367 23.632 66.6033 23.632C67.1783 23.632 67.7107 23.7358 68.2005 23.9435C68.6957 24.1511 69.1216 24.4413 69.4783 24.8139V19.7987H71.1155V31.7778ZM66.8748 30.4681C67.3593 30.4681 67.7959 30.3563 68.1846 30.1327C68.5785 29.9091 68.8927 29.6056 69.1269 29.2223C69.3612 28.8389 69.4783 28.4024 69.4783 27.9126V27.641C69.4783 27.1512 69.3612 26.7146 69.1269 26.3313C68.8927 25.948 68.5785 25.6472 68.1846 25.4289C67.7959 25.2106 67.3593 25.1014 66.8748 25.1014C66.3797 25.1014 65.9351 25.2186 65.5412 25.4528C65.1472 25.6871 64.8357 26.0065 64.6068 26.4112C64.3779 26.8105 64.2634 27.2657 64.2634 27.7768C64.2634 28.2879 64.3779 28.7458 64.6068 29.1504C64.8357 29.555 65.1472 29.8771 65.5412 30.1167C65.9351 30.351 66.3797 30.4681 66.8748 30.4681ZM82.2069 31.7778H80.8173L80.7614 30.4921C80.4686 30.9606 80.0853 31.32 79.6114 31.5702C79.1429 31.8151 78.5865 31.9376 77.9423 31.9376C76.8988 31.9376 76.0736 31.6208 75.4666 30.9872C74.865 30.3483 74.5642 29.4752 74.5642 28.3678V23.7917H76.2013V28.1282C76.2013 28.8363 76.393 29.4006 76.7763 29.8212C77.1597 30.2418 77.6761 30.4521 78.3256 30.4521C78.9965 30.4521 79.5369 30.2285 79.9468 29.7813C80.3621 29.3288 80.5697 28.7351 80.5697 28.0004V23.7917H82.2069V31.7778ZM92.6035 30.5879C92.2149 31.0192 91.749 31.3519 91.206 31.5862C90.6629 31.8204 90.0746 31.9376 89.441 31.9376C88.6424 31.9376 87.9237 31.7565 87.2848 31.3945C86.6512 31.0325 86.1508 30.5373 85.7834 29.9091C85.416 29.2808 85.2324 28.5727 85.2324 27.7848C85.2324 26.9915 85.416 26.2834 85.7834 25.6605C86.1508 25.0322 86.6512 24.5371 87.2848 24.1751C87.9237 23.813 88.6424 23.632 89.441 23.632C90.0693 23.632 90.6549 23.7491 91.198 23.9834C91.741 24.2123 92.2069 24.5424 92.5956 24.9737L91.6292 25.9879C91.3684 25.711 91.0542 25.4981 90.6869 25.349C90.3248 25.1946 89.9388 25.1174 89.5289 25.1174C89.0231 25.1174 88.5732 25.2319 88.1792 25.4608C87.7853 25.6898 87.4765 26.0039 87.2528 26.4032C87.0292 26.7972 86.9174 27.255 86.9174 27.7768C86.9174 28.2932 87.0292 28.7538 87.2528 29.1584C87.4765 29.563 87.7853 29.8798 88.1792 30.1087C88.5732 30.3377 89.0231 30.4521 89.5289 30.4521C89.9388 30.4521 90.3275 30.3749 90.6949 30.2205C91.0622 30.0661 91.3737 29.8532 91.6292 29.5817L92.6035 30.5879ZM100.485 31.5782C99.9255 31.8178 99.3851 31.9376 98.8634 31.9376C98.3416 31.9376 97.8837 31.8257 97.4898 31.6021C97.1011 31.3785 96.795 31.0644 96.5714 30.6598C96.3531 30.2498 96.2439 29.7786 96.2439 29.2462V25.2532H94.8464V23.7917H96.3238V21.7952H97.8811V23.7917H100.213V25.2532H97.8811V28.9428C97.8811 29.4113 98.0062 29.784 98.2564 30.0608C98.512 30.3323 98.8394 30.4681 99.2387 30.4681C99.5741 30.4681 99.9069 30.367 100.237 30.1646L100.485 31.5782ZM104.013 21.4757C103.763 21.4757 103.553 21.3879 103.382 21.2122C103.212 21.0365 103.127 20.8235 103.127 20.5733C103.127 20.3231 103.212 20.1128 103.382 19.9424C103.553 19.7667 103.763 19.6789 104.013 19.6789C104.269 19.6789 104.482 19.7667 104.652 19.9424C104.828 20.1128 104.916 20.3231 104.916 20.5733C104.916 20.8235 104.828 21.0365 104.652 21.2122C104.482 21.3879 104.269 21.4757 104.013 21.4757ZM104.828 31.7778H103.191V23.7917H104.828V31.7778ZM116.063 23.7917L112.741 31.7778H111.151L107.829 23.7917H109.586L111.958 30.0928L114.33 23.7917H116.063ZM125.924 30.8275C124.934 31.5675 123.845 31.9376 122.658 31.9376C121.812 31.9376 121.053 31.7512 120.382 31.3785C119.711 31.0058 119.182 30.4974 118.793 29.8532C118.404 29.209 118.21 28.4822 118.21 27.673C118.21 26.901 118.388 26.2115 118.745 25.6046C119.102 24.9923 119.589 24.5105 120.206 24.1591C120.824 23.8077 121.524 23.632 122.307 23.632C123.116 23.632 123.827 23.8237 124.439 24.207C125.057 24.5903 125.536 25.1254 125.877 25.8122C126.223 26.4937 126.396 27.2843 126.396 28.1841V28.4396H119.983C120.079 28.8549 120.26 29.2196 120.526 29.5337C120.792 29.8425 121.122 30.0848 121.516 30.2605C121.91 30.4308 122.355 30.516 122.85 30.516C123.734 30.516 124.546 30.2285 125.286 29.6535L125.924 30.8275ZM119.911 27.3056H124.87C124.817 26.8584 124.679 26.4697 124.455 26.1396C124.231 25.8042 123.941 25.5433 123.585 25.357C123.233 25.1653 122.837 25.0695 122.395 25.0695C121.947 25.0695 121.545 25.1653 121.189 25.357C120.832 25.5433 120.542 25.8042 120.318 26.1396C120.1 26.4751 119.964 26.8637 119.911 27.3056Z" fill="black"/>
<path d="M133.099 41.8064C68.6365 71.6148 1.63464 106.311 1.63464 97.7809V158.231C1.63464 160.113 3.1602 161.615 5.04205 161.615H390.079C391.961 161.615 393.486 160.089 393.486 158.207V50.2258C393.486 48.2963 391.945 46.7554 390.018 46.8599C372.168 47.828 290.301 53.7207 259.241 81.4869C224.289 112.733 197.561 11.998 133.099 41.8064Z" fill="#36C449" stroke="#D9D9D9" stroke-width="0.681482"/>
</g>
<rect x="1.97538" y="1.1259" width="391.17" height="160.148" rx="3.06667" stroke="#D9D9D9" stroke-width="0.681482" shape-rendering="crispEdges"/>
</g>
<defs>
<filter id="filter0_d_3463_245" x="0.27168" y="0.785156" width="397.304" height="166.963" filterUnits="userSpaceOnUse" color-interpolation-filters="sRGB">
<feFlood flood-opacity="0" result="BackgroundImageFix"/>
<feColorMatrix in="SourceAlpha" type="matrix" values="0 0 0 0 0 0 0 0 0 0 0 0 0 0 0 0 0 0 127 0" result="hardAlpha"/>
<feOffset dx="1.36296" dy="3.40741"/>
<feGaussianBlur stdDeviation="1.36296"/>
<feComposite in2="hardAlpha" operator="out"/>
<feColorMatrix type="matrix" values="0 0 0 0 0 0 0 0 0 0 0 0 0 0 0 0 0 0 0.25 0"/>
<feBlend mode="normal" in2="BackgroundImageFix" result="effect1_dropShadow_3463_245"/>
<feBlend mode="normal" in="SourceGraphic" in2="effect1_dropShadow_3463_245" result="shape"/>
</filter>
<clipPath id="clip0_3463_245">
<rect x="1.63464" y="0.785156" width="391.852" height="160.83" rx="3.40741" fill="white"/>
</clipPath>
</defs>
</svg>
