<svg width="803" height="56" viewBox="0 0 803 56" fill="none" xmlns="http://www.w3.org/2000/svg">
<g filter="url(#filter0_d_3463_100)">
<rect x="2.78662" y="0.5" width="150" height="47" stroke="white" shape-rendering="crispEdges"/>
<path d="M11.103 33V15.4219H16.1655C18.3218 15.4219 20.1733 15.7734 21.7202 16.4766C23.2749 17.1797 24.4663 18.1875 25.2944 19.5C26.1304 20.8125 26.5483 22.3828 26.5483 24.2109C26.5483 26.0312 26.1304 27.6016 25.2944 28.9219C24.4663 30.2344 23.2749 31.2422 21.7202 31.9453C20.1733 32.6484 18.3218 33 16.1655 33H11.103ZM13.1655 31.1719H16.2593C17.9858 31.1719 19.4585 30.8984 20.6772 30.3516C21.896 29.8047 22.8257 29.0117 23.4663 27.9727C24.1147 26.9336 24.439 25.6797 24.439 24.2109C24.439 22.7422 24.1147 21.4883 23.4663 20.4492C22.8257 19.4102 21.896 18.6172 20.6772 18.0703C19.4585 17.5234 17.9858 17.25 16.2593 17.25H13.1655V31.1719ZM40.7379 33H39.0855L38.9566 31.4531C38.5269 32.0078 37.9801 32.4453 37.316 32.7656C36.6519 33.0781 35.9097 33.2344 35.0894 33.2344C34.2457 33.2344 33.4918 33.0703 32.8277 32.7422C32.1637 32.4062 31.6402 31.9492 31.2574 31.3711C30.8824 30.793 30.6949 30.1367 30.6949 29.4023C30.6949 28.6289 30.898 27.9492 31.3043 27.3633C31.7183 26.7695 32.2769 26.3047 32.9801 25.9688C33.691 25.6328 34.4957 25.4648 35.3941 25.4648C35.9801 25.4648 36.5777 25.5391 37.1871 25.6875C37.7965 25.8281 38.3394 26.0234 38.816 26.2734V25.7812C38.816 25.1562 38.6597 24.625 38.3472 24.1875C38.0347 23.7422 37.6168 23.4023 37.0933 23.168C36.5699 22.9258 35.9918 22.8047 35.359 22.8047C34.8121 22.8047 34.2535 22.9062 33.6832 23.1094C33.1129 23.3047 32.566 23.6094 32.0426 24.0234L31.4097 22.3711C32.0894 21.9336 32.8043 21.6055 33.5543 21.3867C34.3043 21.1602 35.0465 21.0469 35.7808 21.0469C36.7965 21.0469 37.6715 21.2539 38.4058 21.668C39.148 22.0742 39.7222 22.6562 40.1285 23.4141C40.5347 24.1641 40.7379 25.0547 40.7379 26.0859V33ZM35.4293 31.4766C36.0308 31.4766 36.5816 31.3516 37.0816 31.1016C37.5816 30.8516 37.9879 30.4922 38.3004 30.0234C38.6129 29.5469 38.7847 28.9844 38.816 28.3359V28.1367C38.3863 27.8008 37.9019 27.543 37.3629 27.3633C36.8316 27.1758 36.2887 27.082 35.734 27.082C34.8668 27.082 34.1402 27.293 33.5543 27.7148C32.9762 28.1367 32.6871 28.6719 32.6871 29.3203C32.6871 29.7266 32.8043 30.0938 33.0387 30.4219C33.2808 30.75 33.609 31.0078 34.023 31.1953C34.4371 31.3828 34.9058 31.4766 35.4293 31.4766ZM45.2477 31.9805L45.7516 30.1758C46.0329 30.4414 46.3532 30.6719 46.7126 30.8672C47.0719 31.0625 47.4508 31.2148 47.8493 31.3242C48.2477 31.4258 48.6501 31.4766 49.0563 31.4766C49.7829 31.4766 50.3688 31.3164 50.8141 30.9961C51.2594 30.6758 51.4821 30.2578 51.4821 29.7422C51.4821 29.3672 51.3649 29.0586 51.1305 28.8164C50.904 28.5664 50.6032 28.3516 50.2282 28.1719C49.8532 27.9922 49.4508 27.8203 49.0212 27.6562C48.4977 27.4531 47.9782 27.2227 47.4626 26.9648C46.9469 26.707 46.5172 26.3672 46.1735 25.9453C45.8376 25.5234 45.6696 24.9688 45.6696 24.2812C45.6696 23.625 45.8337 23.0547 46.1618 22.5703C46.4899 22.0859 46.9469 21.7109 47.5329 21.4453C48.1266 21.1797 48.8063 21.0469 49.5719 21.0469C50.7282 21.0469 51.8649 21.3359 52.9821 21.9141L52.4079 23.6484C52.1579 23.4844 51.8688 23.3398 51.5407 23.2148C51.2126 23.082 50.8766 22.9805 50.5329 22.9102C50.1891 22.8398 49.8649 22.8047 49.5602 22.8047C48.9899 22.8047 48.529 22.9375 48.1774 23.2031C47.8258 23.4609 47.6501 23.8086 47.6501 24.2461C47.6501 24.4961 47.7204 24.7266 47.861 24.9375C48.0094 25.1406 48.2555 25.3438 48.5993 25.5469C48.943 25.75 49.4196 25.9766 50.029 26.2266C50.568 26.4453 51.0993 26.6953 51.6227 26.9766C52.1462 27.25 52.5797 27.6055 52.9235 28.043C53.2751 28.4727 53.4508 29.0352 53.4508 29.7305C53.4508 30.418 53.2672 31.0273 52.9001 31.5586C52.5407 32.082 52.0368 32.4922 51.3883 32.7891C50.7477 33.0859 50.0055 33.2344 49.1618 33.2344C47.7633 33.2344 46.4587 32.8164 45.2477 31.9805ZM58.1833 33V15.4219H60.1052V23.0391C60.988 21.7109 62.3552 21.0469 64.2068 21.0469C65.7615 21.0469 66.9724 21.5117 67.8396 22.4414C68.7146 23.3633 69.1521 24.6523 69.1521 26.3086V33H67.2302V26.7539C67.2302 25.4961 66.9177 24.5195 66.2927 23.8242C65.6755 23.1211 64.8122 22.7695 63.7029 22.7695C62.5857 22.7695 61.7068 23.125 61.0662 23.8359C60.4255 24.5469 60.1052 25.5195 60.1052 26.7539V33H58.1833ZM76.1815 33H74.4705V15.4219H76.3924V22.8633C76.9393 22.293 77.5877 21.8477 78.3377 21.5273C79.0877 21.207 79.9041 21.0469 80.7869 21.0469C81.9432 21.0469 82.9744 21.3125 83.8807 21.8438C84.7869 22.375 85.5018 23.1016 86.0252 24.0234C86.5565 24.9375 86.8221 25.9766 86.8221 27.1406C86.8221 28.2969 86.5565 29.3359 86.0252 30.2578C85.5018 31.1797 84.7869 31.9062 83.8807 32.4375C82.9744 32.9688 81.9432 33.2344 80.7869 33.2344C79.8651 33.2344 79.0174 33.0625 78.244 32.7188C77.4783 32.3672 76.8221 31.8906 76.2752 31.2891L76.1815 33ZM80.6229 31.5C81.4276 31.5 82.1463 31.3125 82.7791 30.9375C83.4197 30.5547 83.9237 30.0352 84.2908 29.3789C84.6658 28.7227 84.8533 27.9805 84.8533 27.1523C84.8533 26.3164 84.6658 25.5703 84.2908 24.9141C83.9237 24.25 83.4197 23.7266 82.7791 23.3438C82.1463 22.9609 81.4276 22.7695 80.6229 22.7695C79.8572 22.7695 79.1619 22.9453 78.5369 23.2969C77.9197 23.6484 77.4197 24.1289 77.0369 24.7383C76.6619 25.3477 76.4471 26.0391 76.3924 26.8125V27.457C76.4471 28.2305 76.6619 28.9219 77.0369 29.5312C77.4119 30.1406 77.908 30.6211 78.5252 30.9727C79.1502 31.3242 79.8494 31.5 80.6229 31.5ZM96.6405 33.2344C95.4765 33.2344 94.4296 32.9688 93.4999 32.4375C92.5702 31.9062 91.8358 31.1836 91.2968 30.2695C90.7655 29.3477 90.4999 28.3047 90.4999 27.1406C90.4999 25.9844 90.7655 24.9492 91.2968 24.0352C91.8358 23.1133 92.5702 22.3867 93.4999 21.8555C94.4296 21.3164 95.4765 21.0469 96.6405 21.0469C97.8046 21.0469 98.8476 21.3164 99.7694 21.8555C100.691 22.3867 101.418 23.1133 101.949 24.0352C102.48 24.9492 102.746 25.9844 102.746 27.1406C102.746 28.3047 102.48 29.3477 101.949 30.2695C101.418 31.1836 100.691 31.9062 99.7694 32.4375C98.8476 32.9688 97.8046 33.2344 96.6405 33.2344ZM96.6288 31.5C97.4179 31.5 98.1249 31.3086 98.7499 30.9258C99.3749 30.543 99.8671 30.0234 100.226 29.3672C100.594 28.7109 100.777 27.9648 100.777 27.1289C100.777 26.3086 100.594 25.5703 100.226 24.9141C99.8671 24.2578 99.3749 23.7383 98.7499 23.3555C98.1249 22.9727 97.4179 22.7812 96.6288 22.7812C95.8397 22.7812 95.1288 22.9727 94.496 23.3555C93.871 23.7383 93.3749 24.2578 93.0077 24.9141C92.6483 25.5703 92.4687 26.3086 92.4687 27.1289C92.4687 27.9648 92.6483 28.7109 93.0077 29.3672C93.3749 30.0234 93.871 30.543 94.496 30.9258C95.1288 31.3086 95.8397 31.5 96.6288 31.5ZM116.83 33H115.178L115.049 31.4531C114.619 32.0078 114.072 32.4453 113.408 32.7656C112.744 33.0781 112.002 33.2344 111.182 33.2344C110.338 33.2344 109.584 33.0703 108.92 32.7422C108.256 32.4062 107.732 31.9492 107.35 31.3711C106.975 30.793 106.787 30.1367 106.787 29.4023C106.787 28.6289 106.99 27.9492 107.396 27.3633C107.811 26.7695 108.369 26.3047 109.072 25.9688C109.783 25.6328 110.588 25.4648 111.486 25.4648C112.072 25.4648 112.67 25.5391 113.279 25.6875C113.889 25.8281 114.432 26.0234 114.908 26.2734V25.7812C114.908 25.1562 114.752 24.625 114.439 24.1875C114.127 23.7422 113.709 23.4023 113.186 23.168C112.662 22.9258 112.084 22.8047 111.451 22.8047C110.904 22.8047 110.346 22.9062 109.775 23.1094C109.205 23.3047 108.658 23.6094 108.135 24.0234L107.502 22.3711C108.182 21.9336 108.896 21.6055 109.646 21.3867C110.396 21.1602 111.139 21.0469 111.873 21.0469C112.889 21.0469 113.764 21.2539 114.498 21.668C115.24 22.0742 115.814 22.6562 116.221 23.4141C116.627 24.1641 116.83 25.0547 116.83 26.0859V33ZM111.521 31.4766C112.123 31.4766 112.674 31.3516 113.174 31.1016C113.674 30.8516 114.08 30.4922 114.393 30.0234C114.705 29.5469 114.877 28.9844 114.908 28.3359V28.1367C114.478 27.8008 113.994 27.543 113.455 27.3633C112.924 27.1758 112.381 27.082 111.826 27.082C110.959 27.082 110.232 27.293 109.646 27.7148C109.068 28.1367 108.779 28.6719 108.779 29.3203C108.779 29.7266 108.896 30.0938 109.131 30.4219C109.373 30.75 109.701 31.0078 110.115 31.1953C110.529 31.3828 110.998 31.4766 111.521 31.4766ZM124.082 33H122.16V21.2812H123.848L123.93 23.6016C124.336 22.7969 124.906 22.1719 125.641 21.7266C126.383 21.2734 127.234 21.0469 128.195 21.0469C128.406 21.0469 128.621 21.0586 128.84 21.082C129.059 21.1055 129.277 21.1406 129.496 21.1875L129.262 22.9219C128.832 22.8203 128.406 22.7695 127.984 22.7695C127.219 22.7695 126.539 22.957 125.945 23.332C125.359 23.707 124.902 24.2227 124.574 24.8789C124.246 25.5352 124.082 26.2891 124.082 27.1406V33ZM144.846 33H143.135L143.029 31.2891C142.49 31.8906 141.834 32.3672 141.061 32.7188C140.287 33.0625 139.443 33.2344 138.529 33.2344C137.373 33.2344 136.338 32.9688 135.424 32.4375C134.51 31.9062 133.787 31.1797 133.256 30.2578C132.733 29.3359 132.471 28.2969 132.471 27.1406C132.471 25.9766 132.733 24.9375 133.256 24.0234C133.787 23.1016 134.51 22.375 135.424 21.8438C136.338 21.3125 137.373 21.0469 138.529 21.0469C139.412 21.0469 140.229 21.207 140.979 21.5273C141.736 21.8477 142.385 22.293 142.924 22.8633V15.4219H144.846V33ZM138.693 31.5C139.475 31.5 140.186 31.3203 140.826 30.9609C141.467 30.5938 141.975 30.0977 142.35 29.4727C142.733 28.8398 142.924 28.125 142.924 27.3281V26.9297C142.924 26.1328 142.733 25.4219 142.35 24.7969C141.975 24.1641 141.467 23.668 140.826 23.3086C140.186 22.9492 139.475 22.7695 138.693 22.7695C137.881 22.7695 137.154 22.9609 136.514 23.3438C135.873 23.7266 135.365 24.2461 134.99 24.9023C134.623 25.5586 134.44 26.3008 134.44 27.1289C134.44 27.957 134.623 28.7031 134.99 29.3672C135.365 30.0234 135.873 30.543 136.514 30.9258C137.154 31.3086 137.881 31.5 138.693 31.5Z" fill="#434343"/>
</g>
<g clip-path="url(#clip0_3463_100)">
<path d="M548.439 27H545.732L552.88 9.42188H555.646L562.783 27H560.076L558.318 22.582H550.197L548.439 27ZM551.076 20.3086H557.439L554.251 12.2812L551.076 20.3086ZM569.25 32.8594H566.847V15.2812H568.968L569.097 16.957C569.628 16.3633 570.265 15.8984 571.007 15.5625C571.757 15.2188 572.578 15.0469 573.468 15.0469C574.593 15.0469 575.597 15.3125 576.48 15.8438C577.371 16.375 578.07 17.1016 578.578 18.0234C579.093 18.9375 579.351 19.9766 579.351 21.1406C579.351 22.2969 579.093 23.3359 578.578 24.2578C578.07 25.1797 577.371 25.9062 576.48 26.4375C575.597 26.9688 574.593 27.2344 573.468 27.2344C572.625 27.2344 571.843 27.082 571.125 26.7773C570.406 26.4727 569.781 26.0469 569.25 25.5V32.8594ZM573.082 25.0547C573.824 25.0547 574.48 24.8867 575.05 24.5508C575.621 24.2148 576.066 23.7539 576.386 23.168C576.714 22.5742 576.878 21.8945 576.878 21.1289C576.878 20.3633 576.714 19.6875 576.386 19.1016C576.066 18.5078 575.621 18.043 575.05 17.707C574.48 17.3711 573.828 17.2031 573.093 17.2031C572.398 17.2031 571.769 17.3594 571.207 17.6719C570.652 17.9766 570.199 18.3984 569.847 18.9375C569.503 19.4766 569.304 20.0898 569.25 20.7773V21.5039C569.304 22.1914 569.5 22.8047 569.836 23.3438C570.179 23.875 570.628 24.293 571.183 24.5977C571.746 24.9023 572.378 25.0547 573.082 25.0547ZM586.193 27H583.791V15.2812H585.888L585.982 17.5078C586.388 16.7344 586.947 16.1328 587.658 15.7031C588.377 15.2656 589.201 15.0469 590.131 15.0469C590.357 15.0469 590.584 15.0625 590.81 15.0938C591.045 15.1172 591.279 15.1562 591.513 15.2109L591.209 17.3789C590.756 17.2617 590.31 17.2031 589.873 17.2031C589.146 17.2031 588.506 17.3789 587.951 17.7305C587.396 18.0742 586.963 18.5508 586.65 19.1602C586.345 19.7695 586.193 20.4727 586.193 21.2695V27ZM596.515 11.8828C596.148 11.8828 595.84 11.7539 595.59 11.4961C595.34 11.2383 595.215 10.9258 595.215 10.5586C595.215 10.1914 595.34 9.88281 595.59 9.63281C595.84 9.375 596.148 9.24609 596.515 9.24609C596.89 9.24609 597.203 9.375 597.453 9.63281C597.711 9.88281 597.84 10.1914 597.84 10.5586C597.84 10.9258 597.711 11.2383 597.453 11.4961C597.203 11.7539 596.89 11.8828 596.515 11.8828ZM597.711 27H595.308V15.2812H597.711V27ZM605.607 27H603.053V8.95312H605.607V27ZM624.143 27H621.564V11.9648L618.412 13.1133L617.603 11.0391L622.068 9.42188H624.143V27ZM636.422 27H633.844V11.9648L630.691 13.1133L629.883 11.0391L634.348 9.42188H636.422V27ZM643.276 29.8125H641.576L642.49 24.8438H644.576L643.276 29.8125ZM668.362 27H657.58V25.4297C659.01 24.1953 660.221 23.0781 661.213 22.0781C662.205 21.0781 663.006 20.1641 663.616 19.3359C664.233 18.5078 664.682 17.7344 664.963 17.0156C665.252 16.2891 665.397 15.5859 665.397 14.9062C665.397 14.1953 665.264 13.5703 664.998 13.0312C664.733 12.4922 664.358 12.0742 663.873 11.7773C663.397 11.4805 662.846 11.332 662.221 11.332C661.502 11.332 660.815 11.5391 660.158 11.9531C659.502 12.3594 658.959 12.9219 658.53 13.6406L657.158 12.0234C657.791 11.0859 658.592 10.3594 659.561 9.84375C660.537 9.32812 661.576 9.07031 662.678 9.07031C663.701 9.07031 664.616 9.29688 665.42 9.75C666.233 10.1953 666.869 10.8164 667.33 11.6133C667.799 12.4102 668.033 13.3398 668.033 14.4023C668.033 15.2227 667.885 16.0625 667.588 16.9219C667.291 17.7734 666.85 18.6367 666.264 19.5117C665.686 20.3789 664.967 21.25 664.108 22.125C663.256 23 662.28 23.8711 661.178 24.7383H668.362V27ZM678.907 27.3516C677.641 27.3516 676.551 26.9961 675.637 26.2852C674.723 25.5664 674.02 24.5273 673.528 23.168C673.036 21.8008 672.789 20.1445 672.789 18.1992C672.789 16.2617 673.036 14.6133 673.528 13.2539C674.02 11.8945 674.723 10.8594 675.637 10.1484C676.551 9.42969 677.641 9.07031 678.907 9.07031C680.172 9.07031 681.258 9.42969 682.164 10.1484C683.078 10.8594 683.782 11.8945 684.274 13.2539C684.774 14.6133 685.024 16.2617 685.024 18.1992C685.024 20.1445 684.778 21.8008 684.286 23.168C683.793 24.5273 683.09 25.5664 682.176 26.2852C681.262 26.9961 680.172 27.3516 678.907 27.3516ZM678.907 25.0781C680 25.0781 680.852 24.4766 681.461 23.2734C682.078 22.0625 682.387 20.3711 682.387 18.1992C682.387 16.0273 682.078 14.3438 681.461 13.1484C680.852 11.9453 680 11.3438 678.907 11.3438C677.813 11.3438 676.957 11.9453 676.34 13.1484C675.731 14.3438 675.426 16.0273 675.426 18.1992C675.426 20.3711 675.731 22.0625 676.34 23.2734C676.957 24.4766 677.813 25.0781 678.907 25.0781ZM700.069 27H689.288V25.4297C690.717 24.1953 691.928 23.0781 692.92 22.0781C693.913 21.0781 694.713 20.1641 695.323 19.3359C695.94 18.5078 696.389 17.7344 696.67 17.0156C696.959 16.2891 697.104 15.5859 697.104 14.9062C697.104 14.1953 696.971 13.5703 696.706 13.0312C696.44 12.4922 696.065 12.0742 695.581 11.7773C695.104 11.4805 694.553 11.332 693.928 11.332C693.209 11.332 692.522 11.5391 691.866 11.9531C691.209 12.3594 690.666 12.9219 690.237 13.6406L688.866 12.0234C689.498 11.0859 690.299 10.3594 691.268 9.84375C692.245 9.32812 693.284 9.07031 694.385 9.07031C695.409 9.07031 696.323 9.29688 697.127 9.75C697.94 10.1953 698.577 10.8164 699.038 11.6133C699.506 12.4102 699.741 13.3398 699.741 14.4023C699.741 15.2227 699.592 16.0625 699.295 16.9219C698.998 17.7734 698.557 18.6367 697.971 19.5117C697.393 20.3789 696.674 21.25 695.815 22.125C694.963 23 693.987 23.8711 692.885 24.7383H700.069V27ZM714.903 27H712.325V23.0039H703.606V21L712.336 9.42188H714.903V20.7422H717.047V23.0039H714.903V27ZM706.278 20.7422H712.325V12.7148L706.278 20.7422Z" fill="black"/>
<path d="M518.537 6H514.037V3.75C514.037 3.55109 513.958 3.36032 513.817 3.21967C513.676 3.07902 513.486 3 513.287 3C513.088 3 512.897 3.07902 512.756 3.21967C512.616 3.36032 512.537 3.55109 512.537 3.75V6H502.037V3.75C502.037 3.55109 501.958 3.36032 501.817 3.21967C501.676 3.07902 501.486 3 501.287 3C501.088 3 500.897 3.07902 500.756 3.21967C500.616 3.36032 500.537 3.55109 500.537 3.75V6H496.037C495.042 6.00119 494.089 6.39666 493.386 7.09966C492.683 7.80267 492.288 8.7558 492.287 9.75V29.25C492.288 30.2442 492.683 31.1973 493.386 31.9003C494.089 32.6033 495.042 32.9988 496.037 33H518.537C519.531 32.9992 520.484 32.6039 521.187 31.9008C521.89 31.1977 522.286 30.2443 522.287 29.25V9.75C522.286 8.75568 521.89 7.80232 521.187 7.09923C520.484 6.39614 519.531 6.00079 518.537 6ZM520.787 29.25C520.787 29.8467 520.55 30.419 520.128 30.841C519.706 31.2629 519.133 31.5 518.537 31.5H496.037C495.44 31.5 494.868 31.2629 494.446 30.841C494.024 30.419 493.787 29.8467 493.787 29.25V16.5H520.787V29.25ZM520.787 15H493.787V9.75C493.787 8.508 494.792 7.5 496.037 7.5H500.537V9.75C500.537 9.94891 500.616 10.1397 500.756 10.2803C500.897 10.421 501.088 10.5 501.287 10.5C501.486 10.5 501.676 10.421 501.817 10.2803C501.958 10.1397 502.037 9.94891 502.037 9.75V7.5H512.537V9.75C512.537 9.94891 512.616 10.1397 512.756 10.2803C512.897 10.421 513.088 10.5 513.287 10.5C513.486 10.5 513.676 10.421 513.817 10.2803C513.958 10.1397 514.037 9.94891 514.037 9.75V7.5H518.537C519.133 7.5 519.706 7.73705 520.128 8.15901C520.55 8.58097 520.787 9.15326 520.787 9.75V15Z" fill="black"/>
<g clip-path="url(#clip1_3463_100)">
<path d="M788.287 4H758.287C758.021 4 757.767 4.10536 757.58 4.29289C757.392 4.48043 757.287 4.73478 757.287 5V6.67C757.287 6.90619 757.334 7.14 757.425 7.35797C757.516 7.57594 757.649 7.77375 757.817 7.94L769.287 19.58V29.78L771.287 30.54V19C771.287 18.8684 771.262 18.7379 771.212 18.6161C771.163 18.4943 771.089 18.3834 770.997 18.29L759.287 6.59V6H787.287V6.61L775.617 18.29C775.517 18.3801 775.436 18.4894 775.379 18.6114C775.323 18.7334 775.291 18.8655 775.287 19V32.21L777.287 33V19.5L788.757 8C788.927 7.82953 789.062 7.62672 789.153 7.40348C789.244 7.18024 789.289 6.94106 789.287 6.7V5C789.287 4.73478 789.181 4.48043 788.994 4.29289C788.806 4.10536 788.552 4 788.287 4Z" fill="#249534"/>
</g>
</g>
<defs>
<filter id="filter0_d_3463_100" x="0.286621" y="0" width="159" height="56" filterUnits="userSpaceOnUse" color-interpolation-filters="sRGB">
<feFlood flood-opacity="0" result="BackgroundImageFix"/>
<feColorMatrix in="SourceAlpha" type="matrix" values="0 0 0 0 0 0 0 0 0 0 0 0 0 0 0 0 0 0 127 0" result="hardAlpha"/>
<feOffset dx="2" dy="4"/>
<feGaussianBlur stdDeviation="2"/>
<feComposite in2="hardAlpha" operator="out"/>
<feColorMatrix type="matrix" values="0 0 0 0 0 0 0 0 0 0 0 0 0 0 0 0 0 0 0.25 0"/>
<feBlend mode="normal" in2="BackgroundImageFix" result="effect1_dropShadow_3463_100"/>
<feBlend mode="normal" in="SourceGraphic" in2="effect1_dropShadow_3463_100" result="shape"/>
</filter>
<clipPath id="clip0_3463_100">
<rect width="313" height="36" fill="white" transform="translate(489.287)"/>
</clipPath>
<clipPath id="clip1_3463_100">
<rect width="36" height="36" fill="white" transform="translate(755.287)"/>
</clipPath>
</defs>
</svg>
