<svg width="257" height="34" viewBox="0 0 257 34" fill="none" xmlns="http://www.w3.org/2000/svg">
<g clip-path="url(#clip0_1519_1576)">
<path d="M201.733 9.59952C203.741 9.59952 205.449 10.3895 206.859 11.9705C208.312 13.551 209.038 15.4735 209.038 17.7375C209.038 20.0445 208.312 21.988 206.859 23.569C205.449 25.1495 203.741 25.94 201.733 25.94H201.669C200.558 25.94 199.533 25.705 198.593 25.235C197.653 24.765 196.948 24.124 196.478 23.3125H196.35L196.478 25.4275V32.2195H193.595V10.048H196.35V12.2265H196.478C196.948 11.415 197.653 10.774 198.593 10.3045C199.533 9.83452 200.579 9.59952 201.733 9.59952M185.393 9.53552C186.76 9.53552 187.999 9.87702 189.11 10.5605C190.22 11.244 190.989 12.0985 191.416 13.124L188.853 14.213C188.564 13.5601 188.069 13.0198 187.443 12.675C186.753 12.3122 185.98 12.1355 185.201 12.1625C184.482 12.1313 183.77 12.3093 183.15 12.675C182.552 13.06 182.253 13.53 182.253 14.085C182.253 14.982 183.086 15.6015 184.752 15.9435L187.059 16.584C190.135 17.3105 191.673 18.8485 191.673 21.198C191.673 22.522 191.096 23.6545 189.943 24.594C188.789 25.534 187.294 25.9825 185.457 25.94C183.919 25.94 182.573 25.534 181.42 24.7225C180.284 23.9575 179.411 22.8611 178.921 21.5825L181.484 20.493C181.869 21.39 182.403 22.095 183.086 22.608C183.773 23.1118 184.604 23.3812 185.457 23.3765C186.397 23.3765 187.166 23.1845 187.764 22.8C188.362 22.415 188.682 21.945 188.725 21.39C188.725 20.4075 187.977 19.6815 186.482 19.2115L183.791 18.5705C180.801 17.8015 179.306 16.349 179.306 14.213C179.306 12.803 179.882 11.6715 181.036 10.817C182.189 9.96252 183.641 9.53552 185.393 9.53552M144.83 9.59952C147.137 9.59952 149.016 10.3685 150.469 11.9065C151.964 13.444 152.712 15.388 152.712 17.7375C152.712 20.13 151.964 22.095 150.469 23.6325C148.974 25.171 147.094 25.94 144.83 25.94C142.566 25.94 140.665 25.171 139.127 23.633C137.632 22.095 136.884 20.13 136.884 17.738C136.884 15.388 137.631 13.444 139.127 11.9065C140.622 10.3685 142.523 9.59952 144.83 9.59952ZM248.96 9.59952C251.267 9.59952 253.082 10.3255 254.407 11.778C255.731 13.2305 256.415 15.3025 256.457 17.994V18.314H244.346C244.389 19.809 244.88 21.027 245.82 21.967C246.76 22.907 247.913 23.355 249.28 23.3125C251.117 23.3125 252.57 22.394 253.638 20.5575L256.201 21.8385C255.535 23.0889 254.537 24.1312 253.317 24.8505C252.121 25.5765 250.733 25.94 249.152 25.94C246.888 25.94 245.03 25.171 243.577 23.633C242.125 22.095 241.398 20.13 241.398 17.738C241.398 15.4305 242.103 13.487 243.513 11.9065C244.923 10.3255 246.738 9.55652 248.96 9.59952ZM233.645 9.59952C235.225 9.59952 236.592 9.98402 237.746 10.753C238.899 11.522 239.775 12.611 240.373 14.021L237.746 15.1105C236.934 13.188 235.503 12.2265 233.452 12.2265C232.128 12.2265 230.975 12.7605 229.992 13.8285C229.052 14.8965 228.582 16.1995 228.582 17.7375C228.582 19.2755 229.052 20.6 229.992 21.7105C230.975 22.7785 232.128 23.3125 233.452 23.3125C235.546 23.3125 237.02 22.3515 237.874 20.429L240.501 21.5185C239.903 22.9285 239.006 24.0175 237.81 24.7865C236.614 25.5555 235.225 25.94 233.645 25.94C231.338 25.94 229.437 25.171 227.942 23.633C226.447 22.0525 225.699 20.087 225.699 17.738C225.699 15.388 226.446 13.444 227.942 11.9065C229.437 10.3685 231.338 9.59952 233.645 9.59952ZM216.92 9.59952C219.056 9.59952 220.743 10.1545 221.982 11.2655C223.221 12.376 223.84 13.9355 223.84 15.9435V25.427H221.085V23.3125H220.957C219.761 25.064 218.159 25.94 216.151 25.94C214.485 25.94 213.075 25.4485 211.922 24.466C210.768 23.4835 210.192 22.223 210.192 20.685C210.192 19.105 210.789 17.8445 211.986 16.9045C213.182 15.9645 214.805 15.4945 216.856 15.4945C218.565 15.4945 219.974 15.794 221.085 16.392V15.751C221.085 14.726 220.679 13.871 219.868 13.188C219.119 12.5275 218.155 12.1628 217.156 12.1625H217.112C215.489 12.1625 214.207 12.846 213.267 14.213L210.704 12.611C212.114 10.6035 214.186 9.59952 216.92 9.59952ZM112.277 2.99952L117.019 20.621H117.147L122.017 6.01102H124.709L129.579 20.621H129.707L134.192 2.99902H137.204L131.181 25.427H128.233L123.427 10.625H123.299L118.429 25.4275H115.482L109.265 2.99902L112.277 2.99952ZM162.195 9.59952C163.007 9.59952 163.712 9.72752 164.31 9.98402L163.413 12.8035C163.071 12.675 162.516 12.611 161.747 12.611C160.636 12.611 159.675 13.0385 158.863 13.8925C158.052 14.7475 157.646 15.7725 157.646 16.9685V25.427H154.762V10.048H157.517V12.611H157.646C157.945 11.7565 158.564 11.052 159.504 10.4965C160.444 9.94152 161.341 9.64202 162.195 9.59952ZM168.539 2.99952V16.84L175.204 10.0475H178.856V10.1755L172.897 16.1355L179.177 25.2985V25.4265H175.652L170.91 18.1855L168.539 20.5565V25.4265H165.656V2.99902L168.539 2.99952ZM217.304 17.8015C216.151 17.8015 215.168 18.0795 214.357 18.6345C213.545 19.19 213.16 19.8945 213.203 20.7495C213.203 21.5185 213.523 22.1375 214.164 22.6075C214.805 23.0775 215.553 23.334 216.407 23.3765C217.603 23.3765 218.671 22.928 219.611 22.031C220.551 21.134 221.042 20.087 221.085 18.891C220.188 18.1645 218.928 17.8015 217.304 17.8015ZM201.22 12.2265C199.81 12.2265 198.635 12.7395 197.696 13.7645C196.799 14.8325 196.35 16.157 196.35 17.7375C196.35 19.4035 196.799 20.7495 197.696 21.7745C198.636 22.7995 199.811 23.3125 201.22 23.3125C202.63 23.3125 203.805 22.8 204.745 21.7745C205.685 20.7495 206.155 19.4035 206.155 17.7375C206.155 16.157 205.685 14.8325 204.745 13.7645C203.805 12.6965 202.63 12.184 201.22 12.2265M144.829 12.2265C143.419 12.2265 142.223 12.7395 141.241 13.7645C140.258 14.7895 139.767 16.1145 139.767 17.7375C139.767 19.4035 140.258 20.7495 141.241 21.7745C142.223 22.7995 143.419 23.3125 144.829 23.3125C146.239 23.3125 147.435 22.8 148.418 21.7745C149.4 20.7495 149.87 19.4035 149.828 17.7375C149.828 16.114 149.358 14.79 148.418 13.7645C147.435 12.7395 146.239 12.2265 144.829 12.2265ZM248.895 12.2265C247.827 12.2265 246.909 12.547 246.14 13.188C245.371 13.8285 244.837 14.726 244.538 15.879H253.381C253.296 14.811 252.868 13.9355 252.099 13.252C251.33 12.5685 250.262 12.227 248.895 12.227" fill="#5F6368"/>
<path d="M13.401 15.623V12.0985H25.064C25.1975 12.817 25.262 13.5465 25.256 14.277C25.256 16.8405 24.551 20.1085 22.244 22.3515C20.002 24.7225 17.182 25.94 13.337 25.94C6.35203 25.94 0.457031 20.2365 0.457031 13.252C0.457031 6.267 6.35203 0.5 13.337 0.5C17.246 0.5 20.0015 2.038 22.116 4.0245L19.617 6.4595C18.3153 5.21693 16.6743 4.38826 14.9016 4.07825C13.1289 3.76825 11.3041 3.99084 9.65791 4.71787C8.01172 5.44491 6.61806 6.64374 5.65316 8.16279C4.68826 9.68184 4.19545 11.4529 4.23703 13.252C4.23703 18.3785 8.27453 22.4795 13.337 22.4795C16.669 22.4795 18.591 21.134 19.8085 19.9165C20.77 18.955 21.4105 17.5455 21.667 15.623H13.401Z" fill="#4285F4"/>
<path d="M43.0061 17.7376C43.0061 22.4796 39.2896 25.9401 34.7401 25.9401C30.1901 25.9401 26.5376 22.4796 26.5376 17.7376C26.5376 12.9956 30.2541 9.53564 34.7401 9.53564C39.2251 9.53564 43.0061 12.9956 43.0061 17.7376ZM39.3536 17.7376C39.3536 14.7901 37.2391 12.8036 34.7401 12.8036C32.2406 12.8036 30.1261 14.7901 30.1261 17.7376C30.1261 20.6851 32.3051 22.7361 34.7401 22.7361C37.1751 22.7361 39.3536 20.6851 39.3536 17.7376Z" fill="#EA4335"/>
<path d="M60.9485 17.7376C60.9485 22.4796 57.232 25.9401 52.6825 25.9401C48.1325 25.9401 44.48 22.4796 44.48 17.7376C44.48 12.9956 48.1965 9.53564 52.6825 9.53564C57.1675 9.53564 60.9485 12.9956 60.9485 17.7376ZM57.296 17.7376C57.296 14.7901 55.181 12.8036 52.6825 12.8036C50.183 12.8036 48.0685 14.7901 48.0685 17.7376C48.0685 20.6851 50.247 22.7361 52.6825 22.7361C55.1175 22.7361 57.296 20.6851 57.296 17.7376Z" fill="#FBBC04"/>
<path d="M78.1219 10.0481V24.7866C78.1219 30.8101 74.5334 33.3091 70.3044 33.3091C66.3314 33.3091 63.9604 30.6176 63.0634 28.4391L66.2034 27.1576C66.7799 28.5031 68.1254 30.1051 70.3044 30.1051C73.0594 30.1051 74.7259 28.3751 74.7259 25.2991V24.0816H74.5974C74.0521 24.6924 73.3789 25.1755 72.6258 25.4968C71.8727 25.818 71.0581 25.9693 70.2399 25.9401C66.2029 25.9401 62.4224 22.3516 62.4224 17.8016C62.4224 13.1881 66.2029 9.53564 70.2399 9.53564C72.2264 9.53564 73.7649 10.4326 74.5974 11.3936H74.7259V10.0481H78.1219ZM74.9819 17.8016C74.9819 14.9181 73.0599 12.8036 70.5604 12.8036C68.1254 12.8036 66.0104 14.9181 66.0104 17.8016C66.0104 20.6216 68.1254 22.7361 70.5604 22.7361C73.0599 22.7361 74.9819 20.6211 74.9819 17.8016Z" fill="#4285F4"/>
<path d="M80.6211 1.46094H84.2096V25.4909H80.6211V1.46094Z" fill="#34A853"/>
<path d="M98.1149 20.4291L100.935 22.3516C100.037 23.6331 97.8589 25.9401 94.0779 25.9401C89.3999 25.9401 85.9399 22.3516 85.9399 17.7376C85.9399 12.8676 89.4644 9.53564 93.6934 9.53564C97.9229 9.53564 100.037 12.9316 100.678 14.7901L101.063 15.6871L90.1049 20.2371C90.9379 21.9031 92.2199 22.7361 94.0779 22.7361C95.9364 22.7361 97.1539 21.8386 98.1149 20.4291ZM89.5284 17.4811L96.8334 14.4696C96.4489 13.4446 95.2314 12.7396 93.8214 12.7396C91.9634 12.7396 89.3999 14.3416 89.5284 17.4811Z" fill="#EA4335"/>
</g>
<defs>
<clipPath id="clip0_1519_1576">
<rect width="256" height="33" fill="white" transform="translate(0.457031 0.5)"/>
</clipPath>
</defs>
</svg>
