<svg width="26" height="26" viewBox="0 0 26 26" fill="none" xmlns="http://www.w3.org/2000/svg">
<path d="M13 25.5C11.2823 25.5 9.66354 25.174 8.14375 24.5219C6.62396 23.8698 5.29583 22.976 4.15937 21.8406C3.02292 20.7052 2.12917 19.3771 1.47812 17.8562C0.827083 16.3354 0.501042 14.7167 0.5 13C0.5 11.9948 0.610416 11.0318 0.83125 10.1109C1.05104 9.1901 1.35833 8.31979 1.75312 7.5C2.14792 6.68021 2.625 5.91979 3.18437 5.21875C3.74375 4.51771 4.36354 3.88229 5.04375 3.3125L14.5859 12.8562L13.4812 13.9609L5.04375 5.52344C4.22187 6.44114 3.51979 7.50937 2.9375 8.72812C2.35417 9.94687 2.0625 11.3708 2.0625 13C2.0625 16.0208 3.13021 18.599 5.26562 20.7344C7.40104 22.8698 9.97917 23.9375 13 23.9375C16.0208 23.9375 18.599 22.8698 20.7344 20.7344C22.8698 18.599 23.9375 16.0208 23.9375 13C23.9375 10.274 23.0208 7.85156 21.1875 5.73281C19.3542 3.61406 16.8854 2.4026 13.7812 2.09844V5.1875H12.2187V0.5H13C14.7177 0.5 16.3365 0.826041 17.8562 1.47812C19.376 2.13021 20.7042 3.02396 21.8406 4.15937C22.9771 5.29479 23.8708 6.62292 24.5219 8.14375C25.1729 9.66458 25.499 11.2833 25.5 13C25.501 14.7167 25.175 16.3354 24.5219 17.8562C23.8687 19.3771 22.975 20.7052 21.8406 21.8406C20.7062 22.976 19.3781 23.8698 17.8562 24.5219C16.3344 25.174 14.7156 25.5 13 25.5ZM5.18594 14.2031C4.84427 14.2031 4.55885 14.0875 4.32969 13.8562C4.10052 13.625 3.98594 13.3385 3.98594 12.9969C3.98594 12.6552 4.10104 12.3703 4.33125 12.1422C4.56146 11.9141 4.84792 11.7995 5.19062 11.7984C5.53333 11.7974 5.81823 11.9125 6.04531 12.1437C6.27239 12.375 6.38698 12.6615 6.38906 13.0031C6.39115 13.3448 6.27604 13.6297 6.04375 13.8578C5.81146 14.0859 5.525 14.2005 5.18437 14.2016M12.9969 22.0141C12.6562 22.0141 12.3714 21.899 12.1422 21.6687C11.913 21.4375 11.7984 21.151 11.7984 20.8094C11.7984 20.4677 11.9135 20.1828 12.1437 19.9547C12.374 19.7266 12.6604 19.612 13.0031 19.6109C13.3458 19.6099 13.6307 19.725 13.8578 19.9562C14.0849 20.1875 14.1995 20.474 14.2016 20.8156C14.2036 21.1573 14.0885 21.4422 13.8562 21.6703C13.624 21.8984 13.3375 22.013 12.9969 22.0141ZM20.8094 14.2016C20.4687 14.2016 20.1839 14.0865 19.9547 13.8562C19.7255 13.625 19.6109 13.3385 19.6109 12.9969C19.6109 12.6552 19.726 12.3703 19.9562 12.1422C20.1865 11.9141 20.4729 11.7995 20.8156 11.7984C21.1583 11.7974 21.4432 11.9125 21.6703 12.1437C21.8974 12.375 22.012 12.6615 22.0141 13.0031C22.0161 13.3448 21.901 13.6297 21.6687 13.8578C21.4365 14.0859 21.15 14.2005 20.8094 14.2016Z" fill="#6D6D6D"/>
</svg>
